<svg width="271" height="63" viewBox="0 0 271 63" fill="none" xmlns="http://www.w3.org/2000/svg">
<path d="M30.96 62.704C30.7893 62.704 30.6613 62.6827 30.576 62.64C30.4907 62.5973 30.4053 62.5547 30.32 62.512C30.7893 62.1707 31.024 61.7013 31.024 61.104C31.024 60.592 30.8533 60.0587 30.512 59.504C30.2133 58.992 29.8933 58.5867 29.552 58.288C29.168 57.9467 28.7413 57.5627 28.272 57.136C27.8453 56.7093 27.4613 56.0907 27.12 55.28C26.864 54.768 26.736 54.2133 26.736 53.616C26.736 53.0187 26.864 52.4427 27.12 51.888C27.376 51.376 27.7387 50.9707 28.208 50.672C27.9093 50.3733 27.4827 50.1173 26.928 49.904C26.416 49.6907 25.8613 49.584 25.264 49.584H24.688C24.0907 49.584 23.536 49.648 23.024 49.776C22.2987 50.032 21.552 50.2453 20.784 50.416C20.0587 50.5867 19.3333 50.7147 18.608 50.8C18.5653 51.568 18.608 52.5493 18.736 53.744C18.9067 54.9813 19.248 56.0907 19.76 57.072C20.272 58.0533 21.04 58.5867 22.064 58.672V59.248C21.1253 59.2907 20.336 58.928 19.696 58.16C19.056 57.4347 18.5653 56.5813 18.224 55.6C18.096 56.1547 17.8613 56.688 17.52 57.2C17.2213 57.712 16.7947 58.096 16.24 58.352C16.1973 58.9067 15.8987 59.4187 15.344 59.888C14.7893 60.4 14.064 60.656 13.168 60.656C12.6133 60.656 11.9947 60.528 11.312 60.272C10.6293 60.016 10.032 59.6747 9.52 59.248C9.008 58.8213 8.688 58.3733 8.56 57.904V57.712C8.56 57.328 8.64533 57.0933 8.816 57.008C8.90133 57.3067 9.05067 57.4987 9.264 57.584C9.52 57.712 9.776 57.776 10.032 57.776C10.5867 57.776 11.056 57.6267 11.44 57.328C11.7387 57.1573 12.08 56.9653 12.464 56.752C12.848 56.5387 13.36 56.432 14 56.432C14.4693 56.432 14.9173 56.56 15.344 56.816C15.7707 57.072 16.048 57.4347 16.176 57.904C16.7733 57.6053 17.2 57.008 17.456 56.112C17.712 55.2587 17.8187 54.5547 17.776 54C17.648 53.4027 17.5627 52.8267 17.52 52.272C17.4773 51.76 17.456 51.312 17.456 50.928C15.152 51.0133 13.04 50.6507 11.12 49.84C9.2 49.0293 7.664 47.7493 6.512 46C5.36 44.2933 4.784 42.16 4.784 39.6C4.784 38.32 4.93333 36.9547 5.232 35.504C5.57333 34.0107 6.10667 32.432 6.832 30.768C7.81333 28.5067 9.136 26.288 10.8 24.112C12.5067 21.936 14.2773 19.9307 16.112 18.096C15.2587 17.7547 14.384 17.392 13.488 17.008C12.6347 16.5813 11.8027 16.1547 10.992 15.728C10.224 15.472 9.456 15.3013 8.688 15.216C7.536 15.216 6.66133 15.4507 6.064 15.92C6.40533 16.176 6.66133 16.5173 6.832 16.944C7.00267 17.328 7.088 17.7547 7.088 18.224C7.088 18.9493 6.93867 19.5467 6.64 20.016C6.256 20.6987 5.82933 21.2107 5.36 21.552C4.93333 21.8507 4.54933 22.128 4.208 22.384C3.86667 22.5973 3.52533 22.96 3.184 23.472C2.88533 23.9413 2.736 24.4107 2.736 24.88C2.736 25.264 2.88533 25.6053 3.184 25.904C3.09867 25.9893 2.94933 26.032 2.736 26.032C2.52267 26.032 2.26667 25.9467 1.968 25.776C1.41333 25.4347 1.008 24.8587 0.752 24.048C0.496 23.1947 0.368 22.32 0.368 21.424C0.368 20.144 0.581333 19.0347 1.008 18.096C1.392 17.2427 1.92533 16.6027 2.608 16.176C3.33333 15.7067 4.016 15.472 4.656 15.472C4.82667 15.472 4.976 15.4933 5.104 15.536C5.232 15.536 5.36 15.5573 5.488 15.6C6.34133 14.832 7.344 14.448 8.496 14.448H8.688C7.57867 13.68 6.72533 12.9973 6.128 12.4C5.14667 11.3333 4.42133 10.288 3.952 9.264C3.52533 8.19733 3.312 7.19466 3.312 6.256C3.312 4.50666 3.99467 3.056 5.36 1.904C6.72533 0.751999 8.51733 0.175999 10.736 0.175999C12.144 0.175999 13.68 0.453332 15.344 1.008C17.0507 1.52 18.8213 2.39466 20.656 3.632C20.784 3.632 20.9973 3.78133 21.296 4.08C21.5093 4.25067 21.808 4.336 22.192 4.336C22.6613 4.336 23.1093 4.18666 23.536 3.888C24.0053 3.58933 24.3893 3.29066 24.688 2.992C25.328 2.39466 26.1173 1.86133 27.056 1.392C27.9947 0.879997 28.848 0.623997 29.616 0.623997C30.7253 0.623997 31.5787 0.943998 32.176 1.584C32.7733 2.18133 33.1147 2.864 33.2 3.632C32.944 3.248 32.4747 3.056 31.792 3.056C31.1093 3.056 30.4693 3.29067 29.872 3.76C29.2747 4.18666 28.7413 4.61333 28.272 5.04C27.7173 5.46666 27.1413 5.872 26.544 6.256C25.9893 6.59733 25.264 6.768 24.368 6.768C24.1973 6.768 24.0267 6.768 23.856 6.768C23.728 6.768 23.5573 6.74666 23.344 6.704C22.9173 6.61866 22.4693 6.42666 22 6.128C21.5733 5.78666 21.2107 5.40266 20.912 4.976C20.6987 4.76266 20.464 4.528 20.208 4.272C19.952 4.016 19.7813 3.86666 19.696 3.824C19.3973 3.61066 19.0773 3.41866 18.736 3.248C18.4373 3.07733 18.1387 2.928 17.84 2.8C17.968 2.928 18.0533 3.03466 18.096 3.12C18.9067 4.016 19.312 5.01866 19.312 6.128C19.312 6.85333 19.12 7.472 18.736 7.984C18.352 8.45333 17.8827 8.688 17.328 8.688C16.944 8.688 16.5387 8.53867 16.112 8.24C15.8133 8.02666 15.664 7.81333 15.664 7.6C15.664 7.38667 15.8133 7.32266 16.112 7.408C16.4533 7.49333 16.7947 7.344 17.136 6.96C17.4773 6.576 17.712 6.128 17.84 5.616C17.8827 5.44533 17.904 5.27466 17.904 5.104C17.9467 4.89066 17.968 4.69866 17.968 4.528C17.968 4.18667 17.9253 3.84533 17.84 3.504C17.7547 3.16266 17.6053 2.84266 17.392 2.544C15.1733 1.52 13.168 1.008 11.376 1.008C9.54133 1.008 8.06933 1.47733 6.96 2.416C5.89333 3.35466 5.36 4.57066 5.36 6.064C5.36 6.96 5.57333 7.89866 6 8.88C6.42667 9.86133 7.10933 10.864 8.048 11.888C8.944 12.8267 10.1387 13.7653 11.632 14.704C13.1253 15.6427 14.8747 16.5387 16.88 17.392C20.2507 14.2347 24.048 11.696 28.272 9.776C32.496 7.81333 36.8267 6.832 41.264 6.832C44.592 6.832 47.0667 7.408 48.688 8.56C50.352 9.712 51.184 11.0773 51.184 12.656C51.184 14.0213 50.544 15.408 49.264 16.816C48.0267 18.224 46.128 19.3973 43.568 20.336C42.1173 20.8907 40.56 21.296 38.896 21.552C37.2747 21.7653 35.6107 21.872 33.904 21.872C30.704 21.872 27.5253 21.5093 24.368 20.784C23.984 20.8267 23.6427 20.9333 23.344 21.104C23.0453 21.232 22.8107 21.4027 22.64 21.616C22.1707 22 21.936 22.4907 21.936 23.088C21.936 23.344 22.0213 23.5573 22.192 23.728C22.4053 23.8987 22.4907 24.0267 22.448 24.112C22.4053 24.1973 22.2987 24.24 22.128 24.24C21.8293 24.24 21.4667 24.112 21.04 23.856C20.656 23.5573 20.464 23.1307 20.464 22.576C20.464 22.0213 20.6987 21.552 21.168 21.168C21.6373 20.784 22.192 20.528 22.832 20.4C22.2773 20.272 21.7227 20.1227 21.168 19.952C20.6133 19.7813 20.1013 19.6107 19.632 19.44C18.3947 20.7627 17.2 22.2347 16.048 23.856C14.896 25.4347 13.8507 27.0987 12.912 28.848C12.912 28.8907 12.8907 28.9333 12.848 28.976C12.848 28.976 12.848 29.0187 12.848 29.104C12.6773 29.5733 12.528 30.0853 12.4 30.64C12.3147 31.152 12.272 31.664 12.272 32.176C12.272 33.072 12.4213 33.904 12.72 34.672C13.0613 35.44 13.488 35.952 14 36.208L14.256 36.336C14.512 35.952 14.8533 35.6747 15.28 35.504C15.7493 35.2907 16.2187 35.184 16.688 35.184C17.2427 35.184 17.6907 35.2693 18.032 35.44C18.6293 35.6533 19.0987 35.9093 19.44 36.208C19.7813 36.5067 20.1013 36.8267 20.4 37.168C20.8267 36.1867 21.2747 35.248 21.744 34.352C22.256 33.4133 22.8107 32.56 23.408 31.792C24.7733 30.0427 26.1813 28.784 27.632 28.016C29.1253 27.2053 30.512 26.8 31.792 26.8C33.5413 26.8 34.9707 27.3973 36.08 28.592C37.232 29.7867 37.808 31.3227 37.808 33.2C37.808 34.1813 37.616 35.2693 37.232 36.464C36.848 37.616 36.2293 38.8107 35.376 40.048C34.1813 41.7547 32.7307 43.376 31.024 44.912C29.36 46.4053 27.5467 47.6427 25.584 48.624L25.648 48.688C26.9707 48.816 28.0587 49.3707 28.912 50.352C28.9973 50.3093 29.104 50.288 29.232 50.288C29.36 50.288 29.4667 50.288 29.552 50.288C30.3627 50.288 31.1733 50.5867 31.984 51.184C32.7947 51.824 33.392 52.6987 33.776 53.808C34.032 54.4907 34.16 55.3653 34.16 56.432C34.16 57.6267 33.9467 58.8213 33.52 60.016C33.136 61.2107 32.56 62.0213 31.792 62.448C31.4507 62.6187 31.1733 62.704 30.96 62.704ZM31.984 20.528C36.0373 20.528 39.664 19.9733 42.864 18.864C44.9973 18.1387 46.64 17.1787 47.792 15.984C48.944 14.7467 49.52 13.552 49.52 12.4C49.52 11.2907 48.9013 10.3093 47.664 9.456C46.4693 8.56 44.5707 8.112 41.968 8.112C40.304 8.112 38.448 8.45333 36.4 9.136C34.3947 9.776 32.368 10.6293 30.32 11.696C28.272 12.7627 26.3733 13.9147 24.624 15.152C22.8747 16.3467 21.4453 17.4987 20.336 18.608C22 19.248 23.8347 19.7387 25.84 20.08C27.8453 20.3787 29.8933 20.528 31.984 20.528ZM18.736 49.456C20.7413 49.1147 22.704 48.3893 24.624 47.28C26.5867 46.2133 28.3787 44.912 30 43.376C31.664 41.84 33.0293 40.24 34.096 38.576C34.7787 37.552 35.2693 36.5707 35.568 35.632C35.8667 34.6507 36.016 33.7547 36.016 32.944C36.016 31.4507 35.5893 30.2347 34.736 29.296C33.9253 28.3573 32.8373 27.888 31.472 27.888C30.4053 27.888 29.232 28.2507 27.952 28.976C26.672 29.7013 25.4133 30.896 24.176 32.56C22.9387 34.2667 21.936 36.0373 21.168 37.872C21.7227 38.2987 22.32 38.512 22.96 38.512C23.5147 38.512 23.92 38.32 24.176 37.936C24.304 38.064 24.368 38.2347 24.368 38.448C24.368 39.2587 23.8987 39.8987 22.96 40.368C22.064 40.7947 21.0827 41.0933 20.016 41.264C19.632 42.5867 19.3333 43.952 19.12 45.36C18.9493 46.7253 18.8213 48.0907 18.736 49.456ZM17.584 49.584C17.6267 48.3893 17.7547 47.088 17.968 45.68C18.1813 44.2293 18.5013 42.7787 18.928 41.328C18.1173 41.328 17.456 41.2427 16.944 41.072C15.8773 40.7307 15.0667 40.1547 14.512 39.344C13.9573 38.5333 13.7653 37.7867 13.936 37.104C13.936 37.0187 13.9787 36.8907 14.064 36.72H14C13.5733 36.72 13.104 36.3573 12.592 35.632C12.08 34.9067 11.76 34.16 11.632 33.392C11.5893 33.2213 11.568 32.944 11.568 32.56C11.568 32.3467 11.568 32.1333 11.568 31.92C11.568 31.7067 11.5893 31.5147 11.632 31.344C11.4613 31.6853 11.2907 32.048 11.12 32.432C10.992 32.7733 10.864 33.1147 10.736 33.456C10.096 34.992 9.62667 36.4427 9.328 37.808C9.072 39.1307 8.944 40.3467 8.944 41.456C8.944 44.272 9.75467 46.3627 11.376 47.728C12.9973 49.136 15.0667 49.7547 17.584 49.584ZM42.5075 46.384C41.3128 46.384 40.3955 45.936 39.7555 45.04C39.1155 44.1013 38.7955 42.9067 38.7955 41.456C38.7955 39.8773 39.2222 38.0427 40.0755 35.952C40.5448 34.8 41.2488 33.6267 42.1875 32.432C43.1262 31.1947 44.2142 30.064 45.4515 29.04C46.6888 27.9733 48.0115 27.12 49.4195 26.48C50.8702 25.7973 52.3422 25.456 53.8355 25.456C54.9875 25.456 55.7768 25.7547 56.2035 26.352C56.6302 26.9493 56.8435 27.6747 56.8435 28.528C56.8435 29.3387 56.7155 30.1707 56.4595 31.024L60.0435 25.584C60.3422 25.3707 61.0035 25.264 62.0275 25.264C62.7955 25.264 63.5208 25.3493 64.2035 25.52C64.9288 25.6907 65.1422 25.9467 64.8435 26.288C64.5022 26.7147 63.9048 27.376 63.0515 28.272C62.2408 29.1253 61.3448 30.1493 60.3635 31.344C59.4248 32.5387 58.5288 33.7973 57.6755 35.12C57.2488 35.8453 56.6088 36.912 55.7555 38.32C54.9448 39.728 54.3048 41.072 53.8355 42.352C53.5795 43.12 53.4515 43.7387 53.4515 44.208C53.4515 45.104 53.8355 45.552 54.6035 45.552C55.0302 45.552 55.6062 45.4027 56.3315 45.104C57.0568 44.7627 57.7608 44.3147 58.4435 43.76C59.8088 42.6507 61.0035 41.328 62.0275 39.792C63.0515 38.2133 63.9688 36.8267 64.7795 35.632C64.8222 35.5893 64.8648 35.5467 64.9075 35.504C64.9928 35.4613 65.1208 35.44 65.2915 35.44C65.4622 35.44 65.5902 35.5253 65.6755 35.696C65.7608 35.824 65.7182 35.9947 65.5475 36.208C64.3528 38 63.1795 39.6853 62.0275 41.264C60.8755 42.8 59.7022 44.0373 58.5075 44.976C57.3128 45.9147 56.0115 46.384 54.6035 46.384C53.4942 46.384 52.5982 46.064 51.9155 45.424C51.2755 44.7413 50.9555 43.824 50.9555 42.672C50.9555 42.16 50.9982 41.6267 51.0835 41.072C51.2115 40.5173 51.3608 40.0053 51.5315 39.536C50.8488 40.432 49.9955 41.4133 48.9715 42.48C47.9902 43.5467 46.9448 44.464 45.8355 45.232C44.7262 46 43.6168 46.384 42.5075 46.384ZM43.0835 45.168C43.9368 45.168 44.8328 44.8267 45.7715 44.144C46.7528 43.4613 47.7342 42.5867 48.7155 41.52C49.6968 40.4107 50.5928 39.2373 51.4035 38C52.0862 36.976 52.7475 35.888 53.3875 34.736C54.0702 33.584 54.6248 32.4533 55.0515 31.344C55.5208 30.2347 55.7555 29.232 55.7555 28.336C55.7555 26.9707 55.2648 26.288 54.2835 26.288C53.6008 26.288 52.8115 26.5867 51.9155 27.184C51.0195 27.7813 50.1022 28.5493 49.1635 29.488C48.2675 30.4267 47.4142 31.4507 46.6035 32.56C45.8355 33.6267 45.2168 34.672 44.7475 35.696C44.6195 35.952 44.2995 36.5707 43.7875 37.552C43.3182 38.5333 42.8488 39.6 42.3795 40.752C41.9528 41.904 41.7395 42.9067 41.7395 43.76C41.7395 44.6987 42.1875 45.168 43.0835 45.168ZM82.7575 35.44C82.8855 35.44 82.9922 35.504 83.0775 35.632C83.1628 35.76 83.1628 35.952 83.0775 36.208C81.0722 39.408 78.7895 41.6907 76.2295 43.056C73.6695 44.3787 71.1308 45.2747 68.6135 45.744C67.5895 46 66.5228 46.128 65.4135 46.128C63.9628 46.128 62.5975 45.8507 61.3175 45.296C60.0375 44.7413 59.1202 43.824 58.5655 42.544C58.3095 41.904 58.1815 41.264 58.1815 40.624C58.1815 39.6853 58.4162 38.8747 58.8855 38.192C59.3975 37.4667 59.9308 36.9547 60.4855 36.656C60.8268 36.4427 61.1895 36.3147 61.5735 36.272C62.0002 36.1867 62.4268 36.144 62.8535 36.144C63.4082 36.144 63.8988 36.208 64.3255 36.336C64.4535 36.1227 64.8375 35.504 65.4775 34.48C66.1175 33.4133 66.9068 32.176 67.8455 30.768C68.7842 29.3173 69.7655 27.952 70.7895 26.672C71.8988 25.3067 72.9655 24.176 73.9895 23.28C75.0135 22.384 75.7602 21.8933 76.2295 21.808C76.3575 21.7653 76.4855 21.744 76.6135 21.744C76.7415 21.744 76.8482 21.744 76.9335 21.744C77.4028 21.744 77.7442 21.8507 77.9575 22.064C78.2135 22.2773 78.3415 22.5333 78.3415 22.832C78.3415 23.1307 78.1708 23.4293 77.8295 23.728C77.5308 24.0267 77.0828 24.176 76.4855 24.176C75.8028 24.176 75.1202 24.368 74.4375 24.752C73.7548 25.0933 73.3495 25.4987 73.2215 25.968C73.0935 26.352 73.0295 26.7787 73.0295 27.248C73.0295 28.016 73.1575 28.784 73.4135 29.552C73.7122 30.32 73.9895 31.088 74.2455 31.856C74.5015 32.624 74.7362 33.4133 74.9495 34.224C75.2055 35.0347 75.3335 35.9093 75.3335 36.848C75.3335 37.7013 75.2055 38.576 74.9495 39.472C74.4802 41.264 73.6055 42.7147 72.3255 43.824C73.8615 43.312 75.5042 42.4587 77.2535 41.264C79.0028 40.0693 80.6455 38.256 82.1815 35.824C82.3095 35.6107 82.4162 35.504 82.5015 35.504C82.6295 35.4613 82.7148 35.44 82.7575 35.44ZM64.6455 45.296C65.2002 45.296 65.7762 45.2107 66.3735 45.04C66.9708 44.8693 67.5468 44.592 68.1015 44.208C68.8695 43.7387 69.5095 42.992 70.0215 41.968C70.5335 40.944 70.9388 39.8347 71.2375 38.64C71.5788 37.4027 71.8135 36.2293 71.9415 35.12C72.1122 34.0107 72.1975 33.136 72.1975 32.496C72.1975 31.6 72.1122 30.704 71.9415 29.808C71.8135 28.912 71.7708 28.0373 71.8135 27.184C70.8748 28.464 69.8082 29.8933 68.6135 31.472C67.4615 33.0507 66.3308 34.8 65.2215 36.72C65.7335 37.0187 66.1602 37.3813 66.5015 37.808C66.8855 38.192 67.1415 38.8107 67.2695 39.664C67.3122 40.0053 67.2055 40.3893 66.9495 40.816C66.7362 41.2 66.3095 41.392 65.6695 41.392C65.2428 41.392 65.0295 41.264 65.0295 41.008C65.0295 40.7947 65.1575 40.6027 65.4135 40.432C65.8402 40.0907 66.0535 39.7067 66.0535 39.28C66.0535 39.024 65.9895 38.768 65.8615 38.512C65.5628 37.9573 65.1362 37.552 64.5815 37.296C64.0695 37.04 63.5148 36.912 62.9175 36.912C62.0642 36.912 61.3388 37.168 60.7415 37.68C60.2295 38.1067 59.8668 38.576 59.6535 39.088C59.4402 39.5573 59.3335 40.048 59.3335 40.56C59.3335 41.3707 59.5468 42.1387 59.9735 42.864C60.4002 43.5467 60.9122 44.0587 61.5095 44.4C62.4482 44.9973 63.4935 45.296 64.6455 45.296ZM84.32 46.384C83.1253 46.384 82.208 45.936 81.568 45.04C80.928 44.1013 80.608 42.9067 80.608 41.456C80.608 39.8773 81.0347 38.0427 81.888 35.952C82.3573 34.8 83.0613 33.6267 84 32.432C84.9387 31.1947 86.0267 30.064 87.264 29.04C88.5013 27.9733 89.824 27.12 91.232 26.48C92.6827 25.7973 94.1547 25.456 95.648 25.456C96.8 25.456 97.5893 25.7547 98.016 26.352C98.4427 26.9493 98.656 27.6747 98.656 28.528C98.656 29.3387 98.528 30.1707 98.272 31.024L101.856 25.584C102.155 25.3707 102.816 25.264 103.84 25.264C104.608 25.264 105.333 25.3493 106.016 25.52C106.741 25.6907 106.955 25.9467 106.656 26.288C106.315 26.7147 105.717 27.376 104.864 28.272C104.053 29.1253 103.157 30.1493 102.176 31.344C101.237 32.5387 100.341 33.7973 99.488 35.12C99.0613 35.8453 98.4213 36.912 97.568 38.32C96.7573 39.728 96.1173 41.072 95.648 42.352C95.392 43.12 95.264 43.7387 95.264 44.208C95.264 45.104 95.648 45.552 96.416 45.552C96.8427 45.552 97.4187 45.4027 98.144 45.104C98.8693 44.7627 99.5733 44.3147 100.256 43.76C101.621 42.6507 102.816 41.328 103.84 39.792C104.864 38.2133 105.781 36.8267 106.592 35.632C106.635 35.5893 106.677 35.5467 106.72 35.504C106.805 35.4613 106.933 35.44 107.104 35.44C107.275 35.44 107.403 35.5253 107.488 35.696C107.573 35.824 107.531 35.9947 107.36 36.208C106.165 38 104.992 39.6853 103.84 41.264C102.688 42.8 101.515 44.0373 100.32 44.976C99.1253 45.9147 97.824 46.384 96.416 46.384C95.3067 46.384 94.4107 46.064 93.728 45.424C93.088 44.7413 92.768 43.824 92.768 42.672C92.768 42.16 92.8107 41.6267 92.896 41.072C93.024 40.5173 93.1733 40.0053 93.344 39.536C92.6613 40.432 91.808 41.4133 90.784 42.48C89.8027 43.5467 88.7573 44.464 87.648 45.232C86.5387 46 85.4293 46.384 84.32 46.384ZM84.896 45.168C85.7493 45.168 86.6453 44.8267 87.584 44.144C88.5653 43.4613 89.5467 42.5867 90.528 41.52C91.5093 40.4107 92.4053 39.2373 93.216 38C93.8987 36.976 94.56 35.888 95.2 34.736C95.8827 33.584 96.4373 32.4533 96.864 31.344C97.3333 30.2347 97.568 29.232 97.568 28.336C97.568 26.9707 97.0773 26.288 96.096 26.288C95.4133 26.288 94.624 26.5867 93.728 27.184C92.832 27.7813 91.9147 28.5493 90.976 29.488C90.08 30.4267 89.2267 31.4507 88.416 32.56C87.648 33.6267 87.0293 34.672 86.56 35.696C86.432 35.952 86.112 36.5707 85.6 37.552C85.1307 38.5333 84.6613 39.6 84.192 40.752C83.7653 41.904 83.552 42.9067 83.552 43.76C83.552 44.6987 84 45.168 84.896 45.168ZM121.801 58.224C120.862 58.224 119.902 58.0533 118.921 57.712C117.982 57.3707 117.193 56.8373 116.553 56.112C115.913 55.3867 115.593 54.4693 115.593 53.36C115.593 53.1893 115.593 52.9973 115.593 52.784C115.635 52.5707 115.678 52.3787 115.721 52.208C115.934 51.1413 116.553 50.2453 117.577 49.52C118.643 48.8373 119.71 48.5173 120.777 48.56C121.161 47.92 121.737 47.6 122.505 47.6C123.059 47.6 123.55 47.8133 123.977 48.24C124.147 48.2827 124.318 48.304 124.489 48.304C124.702 48.3467 124.915 48.368 125.129 48.368C125.47 48.368 125.79 48.3253 126.089 48.24C126.387 48.1547 126.558 48.0053 126.601 47.792C126.729 47.3653 126.878 47.344 127.049 47.728C127.134 48.0267 127.113 48.368 126.985 48.752C126.857 49.1787 126.43 49.4347 125.705 49.52C125.363 49.52 124.979 49.4133 124.553 49.2L124.617 49.328C124.702 49.6693 124.745 49.9467 124.745 50.16C124.745 50.416 124.723 50.672 124.681 50.928C124.638 51.184 124.617 51.4187 124.617 51.632C124.617 52.0587 124.766 52.4213 125.065 52.72C125.363 53.0187 125.683 53.1253 126.025 53.04C125.683 53.6373 125.193 53.936 124.553 53.936C124.041 53.936 123.55 53.7227 123.081 53.296C122.654 52.912 122.419 52.4 122.377 51.76C122.334 50.9067 122.206 50.2453 121.993 49.776C121.822 49.3493 121.459 49.0933 120.905 49.008H120.841C120.03 48.9653 119.219 49.2853 118.409 49.968C117.598 50.6933 117.086 51.504 116.873 52.4C116.83 52.5707 116.787 52.7413 116.745 52.912C116.745 53.1253 116.745 53.3173 116.745 53.488C116.745 54.6827 117.214 55.6213 118.153 56.304C119.091 56.9867 120.158 57.328 121.353 57.328C123.273 57.328 125.299 56.6027 127.433 55.152C129.566 53.7013 131.742 51.7813 133.961 49.392C136.179 47.0027 138.377 44.3573 140.553 41.456C142.771 38.5547 144.862 35.6533 146.825 32.752H138.505C135.134 32.752 132.659 33.456 131.081 34.864C129.502 36.272 128.713 37.8507 128.713 39.6C128.713 40.5387 128.926 41.456 129.353 42.352C129.779 43.2053 130.398 43.9733 131.208 44.656L131.017 44.912C130.377 44.6987 129.737 44.272 129.097 43.632C128.499 42.992 128.009 42.2453 127.625 41.392C127.241 40.5387 127.049 39.728 127.049 38.96C127.049 37.04 128.03 35.376 129.993 33.968C131.998 32.56 134.835 31.856 138.505 31.856H140.553C139.998 31.6853 139.443 31.408 138.889 31.024C138.377 30.5973 138.121 30.1067 138.121 29.552C138.121 29.0827 138.291 28.656 138.633 28.272C138.974 27.888 139.315 27.6747 139.657 27.632H139.849C140.019 27.632 140.105 27.6747 140.105 27.76C140.105 27.888 139.998 28.0587 139.785 28.272C139.657 28.4 139.593 28.5707 139.593 28.784C139.593 29.296 139.849 29.8507 140.361 30.448C140.873 31.0453 141.321 31.4507 141.705 31.664C142.046 31.7067 142.259 31.7707 142.345 31.856H147.465C147.977 31.1307 148.467 30.384 148.937 29.616C149.449 28.848 149.939 28.1227 150.409 27.44C151.347 26.032 152.457 24.5173 153.737 22.896C155.017 21.2747 156.425 19.6533 157.961 18.032C159.497 16.368 161.075 14.8747 162.697 13.552C159.966 12.9547 157.129 12.3147 154.185 11.632C151.241 10.9493 148.318 10.3733 145.417 9.904C142.558 9.392 139.806 9.136 137.161 9.136C134.729 9.136 132.446 9.41333 130.312 9.968C128.222 10.5227 126.366 11.504 124.745 12.912C123.294 14.2347 122.185 15.664 121.417 17.2C120.691 18.6933 120.329 20.1653 120.329 21.616C120.329 23.6213 121.054 25.328 122.505 26.736C123.955 28.144 126.131 28.7627 129.033 28.592C128.99 28.5067 128.969 28.4 128.969 28.272C128.969 28.144 128.969 28.0373 128.969 27.952C128.969 26.8853 129.395 26.032 130.249 25.392C130.846 24.9653 131.379 24.688 131.849 24.56C132.318 24.432 132.766 24.3467 133.193 24.304C133.662 24.2187 134.153 23.984 134.665 23.6C135.219 23.216 135.497 22.7467 135.497 22.192C135.497 22.1067 135.454 21.936 135.369 21.68C135.454 21.68 135.582 21.7013 135.753 21.744C135.966 21.7867 136.158 21.9787 136.329 22.32C136.457 22.4907 136.542 22.704 136.585 22.96C136.627 23.216 136.649 23.472 136.649 23.728C136.649 24.624 136.393 25.6053 135.881 26.672C135.411 27.696 134.878 28.4853 134.281 29.04C133.854 29.424 133.385 29.7013 132.873 29.872C132.403 30.0427 131.934 30.128 131.465 30.128C130.611 30.128 129.993 29.9147 129.609 29.488C129.438 29.3173 129.331 29.1893 129.289 29.104C127.07 29.232 125.15 28.9973 123.529 28.4C121.907 27.76 120.585 26.9067 119.561 25.84C119.646 26.096 119.71 26.352 119.753 26.608C119.795 26.864 119.817 27.1413 119.817 27.44C119.817 27.8667 119.753 28.3147 119.625 28.784C119.923 28.9547 120.137 29.1893 120.265 29.488C120.393 29.744 120.457 30.0213 120.457 30.32C120.457 30.7893 120.35 31.2587 120.137 31.728C119.966 32.1547 119.753 32.5173 119.497 32.816C119.198 33.1147 118.686 33.5413 117.961 34.096C117.235 34.608 116.51 34.8 115.785 34.672C115.913 34.5013 116.169 34.1813 116.553 33.712C116.937 33.2427 117.129 32.6027 117.129 31.792C117.129 31.408 117.065 31.0027 116.937 30.576C116.766 29.8507 116.958 29.3173 117.513 28.976C118.067 28.6347 118.579 28.5067 119.049 28.592C119.091 28.3787 119.113 28.1867 119.113 28.016C119.155 27.8027 119.177 27.6107 119.177 27.44C119.177 26.672 119.006 25.84 118.665 24.944C118.622 24.8587 118.601 24.752 118.601 24.624C117.577 23.088 117.065 21.36 117.065 19.44C117.065 17.52 117.619 15.6213 118.729 13.744C119.838 11.824 121.523 10.224 123.785 8.944C125.321 8.048 126.985 7.42933 128.777 7.088C130.569 6.704 132.446 6.512 134.409 6.512C137.481 6.512 140.702 6.85333 144.073 7.536C147.443 8.21866 150.793 9.02933 154.121 9.968C157.491 10.9067 160.713 11.7813 163.785 12.592C165.491 11.2267 167.091 10.288 168.585 9.776C170.078 9.264 171.401 9.008 172.553 9.008C173.022 9.008 173.449 9.05067 173.833 9.136C174.259 9.17866 174.643 9.24266 174.985 9.328C175.923 9.584 176.649 10.0107 177.161 10.608C177.673 11.1627 177.929 11.7387 177.929 12.336C177.929 13.104 177.502 13.7867 176.649 14.384C175.838 14.9813 174.515 15.28 172.681 15.28C171.913 15.28 171.038 15.216 170.057 15.088C169.118 14.96 168.158 14.7893 167.177 14.576C166.238 14.32 165.214 14.0853 164.105 13.872C162.782 14.9813 161.374 16.5387 159.881 18.544C158.387 20.5067 156.873 22.6613 155.337 25.008C153.843 27.3547 152.414 29.6373 151.049 31.856H155.849C157.854 31.856 159.433 31.7707 160.585 31.6C161.779 31.3867 162.526 30.9387 162.825 30.256L163.337 30.448C162.995 31.2587 162.27 31.8347 161.161 32.176C161.161 32.2187 161.097 32.24 160.969 32.24C160.243 32.4107 159.539 32.7093 158.857 33.136C158.174 33.52 157.598 33.9467 157.129 34.416C157.555 34.6293 157.875 34.9707 158.089 35.44C158.302 35.8667 158.409 36.3147 158.409 36.784C158.409 37.1253 158.345 37.4667 158.217 37.808C158.003 38.4053 157.747 38.8747 157.449 39.216C157.15 39.5573 156.851 39.856 156.553 40.112C156.339 40.3253 156.126 40.624 155.913 41.008C155.742 41.392 155.657 41.7547 155.657 42.096C155.657 42.608 155.849 42.992 156.233 43.248C156.105 43.376 155.955 43.44 155.785 43.44C154.974 43.44 154.334 42.8853 153.865 41.776C153.438 40.624 153.225 39.4933 153.225 38.384C153.225 37.0613 153.609 36.016 154.377 35.248C155.145 34.48 155.87 34.1387 156.553 34.224C157.107 33.5413 157.577 33.0293 157.961 32.688C157.278 32.7307 156.553 32.752 155.785 32.752C155.017 32.752 154.206 32.752 153.353 32.752H150.472C149.875 33.776 149.278 34.7573 148.681 35.696C148.126 36.592 147.593 37.4453 147.081 38.256C143.198 44.4 139.145 49.264 134.921 52.848C130.739 56.432 126.366 58.224 121.801 58.224ZM172.361 14.384C173.598 14.384 174.451 14.1707 174.921 13.744C175.433 13.2747 175.689 12.7627 175.689 12.208C175.689 11.3547 175.283 10.7787 174.473 10.48C173.705 10.1387 172.937 9.968 172.169 9.968C170.889 9.968 169.651 10.288 168.457 10.928C167.262 11.5253 166.11 12.1867 165.001 12.912C165.598 13.04 166.387 13.232 167.369 13.488C168.393 13.744 169.438 13.9787 170.505 14.192C171.23 14.32 171.849 14.384 172.361 14.384ZM167.914 46.576C167.743 46.576 167.551 46.5547 167.338 46.512C167.125 46.512 166.911 46.4907 166.698 46.448C165.461 46.1493 164.565 45.5947 164.01 44.784C163.498 43.9307 163.242 42.9067 163.242 41.712C163.242 40.7733 163.37 39.7707 163.626 38.704C163.925 37.5947 164.287 36.4427 164.714 35.248C165.439 33.3707 166.335 31.3013 167.402 29.04C168.511 26.736 169.749 24.3893 171.114 22C172.522 19.568 173.994 17.2213 175.53 14.96C177.109 12.6987 178.73 10.6507 180.394 8.816C181.375 7.70666 182.357 6.704 183.338 5.808C184.362 4.912 185.365 4.18666 186.346 3.632C188.01 2.608 189.546 2.096 190.954 2.096C191.807 2.096 192.469 2.30933 192.938 2.736C193.45 3.12 193.706 3.73866 193.706 4.592C193.706 5.14667 193.578 5.78667 193.322 6.512C193.109 7.19467 192.725 7.984 192.17 8.88C191.103 10.672 189.717 12.5493 188.01 14.512C186.346 16.4747 184.533 18.3947 182.57 20.272C180.607 22.1067 178.623 23.792 176.618 25.328C174.655 26.864 172.799 28.1227 171.05 29.104C170.197 30.64 169.386 32.2827 168.618 34.032C167.85 35.7387 167.231 37.3813 166.762 38.96C166.293 40.496 166.058 41.8187 166.058 42.928C166.058 43.7813 166.229 44.464 166.57 44.976C166.911 45.488 167.445 45.744 168.17 45.744C169.109 45.744 170.197 45.3173 171.434 44.464C172.671 43.6107 173.951 42.4587 175.274 41.008C176.639 39.5147 177.919 37.7867 179.114 35.824C179.327 35.568 179.541 35.44 179.754 35.44C179.882 35.44 179.967 35.5253 180.01 35.696C180.095 35.8667 180.095 36.0373 180.01 36.208C177.919 39.408 175.871 41.9467 173.866 43.824C171.903 45.6587 169.919 46.576 167.914 46.576ZM171.498 27.888C172.863 27.12 174.442 25.9467 176.234 24.368C178.069 22.7893 179.925 21.04 181.802 19.12C183.679 17.1573 185.407 15.216 186.986 13.296C188.607 11.376 189.866 9.69066 190.762 8.24C191.231 7.472 191.573 6.81066 191.786 6.256C191.999 5.70133 192.106 5.232 192.106 4.848C192.106 4.08 191.765 3.696 191.082 3.696C190.186 3.696 188.991 4.31467 187.498 5.552C186.431 6.448 185.429 7.45067 184.49 8.56C183.551 9.62667 182.89 10.416 182.506 10.928C180.543 13.5307 178.645 16.368 176.81 19.44C174.975 22.4693 173.205 25.2853 171.498 27.888ZM183.051 46.896C182.07 46.896 181.152 46.6613 180.299 46.192C179.488 45.7227 178.87 44.9547 178.443 43.888C178.144 43.1627 177.995 42.2453 177.995 41.136C177.995 39.728 178.251 38.2987 178.763 36.848C179.531 34.5867 180.619 32.6027 182.027 30.896C183.435 29.1467 184.992 27.7813 186.699 26.8C188.448 25.776 190.198 25.264 191.947 25.264C193.526 25.264 194.678 25.6907 195.403 26.544C196.128 27.3973 196.491 28.4853 196.491 29.808C196.491 30.576 196.384 31.3867 196.171 32.24C196 33.0933 195.766 33.9467 195.467 34.8C195.04 35.9947 194.486 37.0827 193.803 38.064C193.12 39.0453 192.544 39.8133 192.075 40.368C193.014 40.88 193.974 40.9227 194.955 40.496C195.979 40.0267 196.918 39.344 197.771 38.448C198.624 37.5093 199.307 36.6347 199.819 35.824C199.904 35.6533 200.011 35.5467 200.139 35.504C200.31 35.4613 200.416 35.44 200.459 35.44C200.886 35.44 200.971 35.696 200.715 36.208C199.307 38.512 197.75 40.1333 196.043 41.072C194.336 41.968 192.822 42.0107 191.499 41.2L191.371 41.392C190.731 42.3307 190.027 43.2053 189.259 44.016C188.491 44.784 187.638 45.424 186.699 45.936C186.144 46.2347 185.547 46.4693 184.907 46.64C184.267 46.8107 183.648 46.896 183.051 46.896ZM183.627 45.808C184.523 45.808 185.483 45.5307 186.507 44.976C187.403 44.464 188.214 43.824 188.939 43.056C189.707 42.288 190.326 41.5627 190.795 40.88C190.326 40.6667 189.92 40.2827 189.579 39.728C189.238 39.1307 189.067 38.4053 189.067 37.552C189.067 36.656 189.238 35.696 189.579 34.672C189.963 33.6053 190.475 32.7093 191.115 31.984C191.798 31.2587 192.544 30.896 193.355 30.896C193.867 30.896 194.272 31.024 194.571 31.28C194.912 31.536 195.083 31.8347 195.083 32.176C195.168 31.9627 195.232 31.6427 195.275 31.216C195.36 30.7893 195.403 30.32 195.403 29.808C195.403 28.6987 195.19 27.9093 194.763 27.44C194.336 26.928 193.76 26.672 193.035 26.672C192.736 26.672 192.416 26.7147 192.075 26.8C191.776 26.8853 191.456 26.992 191.115 27.12C189.536 27.76 187.915 28.9547 186.251 30.704C184.63 32.4533 183.392 34.3947 182.539 36.528C182.198 37.3813 181.878 38.384 181.579 39.536C181.28 40.688 181.131 41.7547 181.131 42.736C181.131 43.8453 181.366 44.6347 181.835 45.104C182.347 45.5733 182.944 45.808 183.627 45.808ZM205.785 46.64C204.932 46.64 204.164 46.384 203.481 45.872C202.841 45.36 202.521 44.6347 202.521 43.696C202.521 42.6293 202.798 41.4773 203.353 40.24C203.95 39.0027 204.59 37.8933 205.273 36.912C205.956 35.888 206.404 35.2267 206.617 34.928C207.385 33.904 208.089 32.8587 208.729 31.792C209.412 30.6827 209.753 29.7867 209.753 29.104C209.753 28.464 209.476 28.0587 208.921 27.888C208.452 27.7173 207.961 27.5467 207.449 27.376C206.937 27.1627 206.553 27.0347 206.297 26.992C206.169 27.2053 205.87 27.7173 205.401 28.528C204.932 29.296 204.377 30.192 203.737 31.216C203.14 32.1973 202.564 33.1573 202.009 34.096C201.454 35.0347 201.028 35.7387 200.729 36.208C200.473 36.5067 200.26 36.656 200.089 36.656C199.918 36.656 199.79 36.5707 199.705 36.4C199.662 36.2293 199.705 36.0373 199.833 35.824C201.113 33.8187 202.244 31.9413 203.225 30.192C204.206 28.4427 204.846 27.3333 205.145 26.864C204.718 26.5653 204.377 26.0533 204.121 25.328C203.865 24.6027 203.737 23.856 203.737 23.088C203.737 22.2347 203.908 21.4667 204.249 20.784C204.59 20.1013 205.166 19.76 205.977 19.76C206.532 19.76 206.916 20.0373 207.129 20.592C207.342 21.104 207.449 21.7013 207.449 22.384C207.449 22.9813 207.385 23.5573 207.257 24.112C207.129 24.6667 207.022 25.0507 206.937 25.264L206.489 26.288C207.001 26.3307 207.769 26.416 208.793 26.544C209.817 26.672 210.884 26.8213 211.993 26.992C212.633 27.0773 213.145 27.312 213.529 27.696C213.956 28.08 214.169 28.592 214.169 29.232C214.169 29.872 213.956 30.64 213.529 31.536C213.102 32.432 212.377 33.456 211.353 34.608C210.841 35.2053 210.222 35.9947 209.497 36.976C208.772 37.9573 208.089 38.9173 207.449 39.856C206.809 40.752 206.34 41.456 206.041 41.968C205.486 42.864 205.209 43.6747 205.209 44.4C205.209 45.2107 205.657 45.616 206.553 45.616C207.534 45.616 208.58 45.2533 209.689 44.528C210.798 43.76 211.886 42.8213 212.953 41.712C214.02 40.6027 214.958 39.5147 215.769 38.448C216.622 37.3387 217.241 36.464 217.625 35.824C217.796 35.5253 218.03 35.376 218.329 35.376C218.542 35.376 218.649 35.4827 218.649 35.696C218.649 35.9093 218.606 36.08 218.521 36.208C218.094 36.848 217.39 37.808 216.409 39.088C215.47 40.368 214.34 41.6693 213.017 42.992C211.694 44.272 210.222 45.2747 208.601 46C208.089 46.2133 207.577 46.3627 207.065 46.448C206.553 46.576 206.126 46.64 205.785 46.64ZM229.806 22.704C229.208 22.704 228.739 22.512 228.398 22.128C228.099 21.744 227.95 21.296 227.95 20.784C227.95 19.9307 228.248 19.248 228.846 18.736C229.443 18.224 230.083 17.968 230.766 17.968C231.363 17.968 231.832 18.16 232.174 18.544C232.515 18.8853 232.686 19.3333 232.686 19.888C232.686 20.6987 232.387 21.3813 231.79 21.936C231.192 22.448 230.531 22.704 229.806 22.704ZM219.182 46.768C218.03 46.768 217.048 46.4267 216.238 45.744C215.47 45.0187 215.086 43.9947 215.086 42.672C215.086 41.9893 215.214 41.2 215.47 40.304C215.768 39.3653 216.11 38.512 216.494 37.744C216.92 36.9333 217.283 36.272 217.582 35.76C217.923 35.248 218.094 34.992 218.094 34.992L224.366 25.712C224.622 25.4987 224.942 25.3707 225.326 25.328C225.71 25.2427 226.115 25.2 226.542 25.2C227.139 25.2 227.651 25.264 228.078 25.392C228.504 25.4773 228.675 25.6267 228.59 25.84L222.254 35.248C222.126 35.4187 221.699 36.016 220.974 37.04C220.291 38.0213 219.63 39.1093 218.99 40.304C218.179 41.7973 217.774 43.0773 217.774 44.144C217.774 45.296 218.307 45.872 219.374 45.872C219.715 45.872 220.12 45.808 220.59 45.68C221.102 45.5093 221.678 45.2533 222.318 44.912C225.006 43.4187 227.758 40.3893 230.574 35.824C230.702 35.6107 230.808 35.504 230.894 35.504C231.022 35.4613 231.107 35.44 231.15 35.44C231.363 35.44 231.491 35.5253 231.534 35.696C231.619 35.824 231.598 35.9947 231.47 36.208C229.934 38.5547 228.419 40.5813 226.926 42.288C225.475 43.9947 223.939 45.232 222.318 46C221.251 46.512 220.206 46.768 219.182 46.768ZM232.951 46.448C231.714 46.448 230.604 46.1067 229.623 45.424C228.684 44.6987 228.215 43.6533 228.215 42.288C228.215 41.5627 228.258 40.9227 228.343 40.368C228.428 39.7707 228.62 39.152 228.919 38.512C229.26 37.8293 229.751 36.976 230.391 35.952C231.074 34.928 231.991 33.6267 233.143 32.048L237.815 25.456H234.359L234.871 24.496H238.519L243.639 17.136C244.578 16.4533 245.708 16.112 247.031 16.112C247.671 16.112 248.311 16.2187 248.951 16.432L242.871 24.432H247.415L246.903 25.392H242.167L236.855 32.816C236.599 33.1573 236.172 33.7547 235.575 34.608C234.978 35.4187 234.338 36.3573 233.655 37.424C233.015 38.4907 232.46 39.5573 231.991 40.624C231.522 41.648 231.287 42.5867 231.287 43.44C231.287 44.848 231.97 45.552 233.335 45.552C234.06 45.552 234.871 45.3387 235.767 44.912C237.73 44.0587 239.394 42.8427 240.759 41.264C242.167 39.6427 243.511 37.8293 244.791 35.824C244.919 35.6533 245.111 35.568 245.367 35.568C245.495 35.568 245.602 35.632 245.687 35.76C245.772 35.888 245.772 36.0373 245.687 36.208C244.919 37.4027 244.066 38.64 243.127 39.92C242.188 41.2 241.122 42.3733 239.927 43.44C238.775 44.5067 237.474 45.3173 236.023 45.872C235.084 46.256 234.06 46.448 232.951 46.448ZM246.883 46.384C245.688 46.384 244.771 45.936 244.131 45.04C243.491 44.1013 243.171 42.9067 243.171 41.456C243.171 39.8773 243.597 38.0427 244.451 35.952C244.92 34.8 245.624 33.6267 246.562 32.432C247.501 31.1947 248.589 30.064 249.827 29.04C251.064 27.9733 252.387 27.12 253.795 26.48C255.245 25.7973 256.717 25.456 258.211 25.456C259.363 25.456 260.152 25.7547 260.579 26.352C261.005 26.9493 261.219 27.6747 261.219 28.528C261.219 29.3387 261.091 30.1707 260.835 31.024L264.419 25.584C264.717 25.3707 265.379 25.264 266.403 25.264C267.171 25.264 267.896 25.3493 268.579 25.52C269.304 25.6907 269.517 25.9467 269.219 26.288C268.877 26.7147 268.28 27.376 267.427 28.272C266.616 29.1253 265.72 30.1493 264.739 31.344C263.8 32.5387 262.904 33.7973 262.051 35.12C261.624 35.8453 260.984 36.912 260.131 38.32C259.32 39.728 258.68 41.072 258.211 42.352C257.955 43.12 257.827 43.7387 257.827 44.208C257.827 45.104 258.211 45.552 258.979 45.552C259.405 45.552 259.981 45.4027 260.707 45.104C261.432 44.7627 262.136 44.3147 262.819 43.76C264.184 42.6507 265.379 41.328 266.403 39.792C267.427 38.2133 268.344 36.8267 269.155 35.632C269.197 35.5893 269.24 35.5467 269.283 35.504C269.368 35.4613 269.496 35.44 269.667 35.44C269.837 35.44 269.965 35.5253 270.051 35.696C270.136 35.824 270.093 35.9947 269.923 36.208C268.728 38 267.555 39.6853 266.403 41.264C265.251 42.8 264.077 44.0373 262.883 44.976C261.688 45.9147 260.387 46.384 258.979 46.384C257.869 46.384 256.973 46.064 256.291 45.424C255.651 44.7413 255.331 43.824 255.331 42.672C255.331 42.16 255.373 41.6267 255.458 41.072C255.587 40.5173 255.736 40.0053 255.907 39.536C255.224 40.432 254.371 41.4133 253.347 42.48C252.365 43.5467 251.32 44.464 250.211 45.232C249.101 46 247.992 46.384 246.883 46.384ZM247.459 45.168C248.312 45.168 249.208 44.8267 250.147 44.144C251.128 43.4613 252.109 42.5867 253.091 41.52C254.072 40.4107 254.968 39.2373 255.779 38C256.461 36.976 257.123 35.888 257.763 34.736C258.445 33.584 259 32.4533 259.427 31.344C259.896 30.2347 260.131 29.232 260.131 28.336C260.131 26.9707 259.64 26.288 258.659 26.288C257.976 26.288 257.187 26.5867 256.291 27.184C255.395 27.7813 254.477 28.5493 253.539 29.488C252.643 30.4267 251.789 31.4507 250.979 32.56C250.211 33.6267 249.592 34.672 249.123 35.696C248.995 35.952 248.675 36.5707 248.163 37.552C247.693 38.5333 247.224 39.6 246.755 40.752C246.328 41.904 246.115 42.9067 246.115 43.76C246.115 44.6987 246.563 45.168 247.459 45.168Z" fill="#CE3939"/>
</svg>
