<svg width="158" height="111" viewBox="0 0 158 111" fill="none" xmlns="http://www.w3.org/2000/svg">
<path d="M27.8331 70.4487C27.8091 70.44 27.7851 70.4291 27.759 70.4204C27.7546 70.4161 27.7546 70.4118 27.7481 70.4096C25.6298 68.8703 23.1498 67.8455 20.7417 66.7816C19.517 66.241 18.2247 65.6787 16.9062 65.3986C15.8318 65.1707 14.7553 65.086 13.6853 64.8276C11.312 64.2523 9.15674 64.9318 6.79005 65.01C5.37135 65.0578 3.46884 64.9948 2.5274 63.7095C1.53365 62.3525 2.96761 62.9322 3.58435 62.5718C3.68023 62.5175 3.71728 62.4047 3.7151 62.3026C3.69985 61.0759 2.53394 60.6634 1.52493 61.128C0.232627 61.7229 -0.214122 63.3817 0.0931547 64.6735C0.890768 68.0344 4.76333 69.5976 7.93199 68.829C7.26077 70.0904 6.49585 71.8404 5.11419 71.7644C4.92024 71.7535 4.78076 71.9989 4.84832 72.1639C5.48467 73.7206 7.63343 74.5955 9.23737 74.3524C10.7955 74.1157 11.7435 73.0149 12.4344 71.76C12.5695 72.0857 12.7678 72.3831 13.0271 72.7066C13.123 72.8261 13.317 72.8955 13.4521 72.7848C14.1429 72.216 14.2846 71.0522 14.6943 70.2728C15.7272 68.3014 17.4881 67.3114 19.7284 67.839C22.4416 68.4773 24.9978 69.9949 27.5716 70.9915C27.9355 71.1347 28.1992 70.5898 27.8331 70.4487Z" fill="#91251C"/>
<path d="M26.2751 67.2007C26.1117 66.9054 26.1422 66.938 25.8698 66.7447C25.8589 66.7382 25.8501 66.736 25.8414 66.7317C24.7758 65.568 23.4246 64.7234 22.3982 63.4772C21.8599 62.8237 21.339 62.1333 20.901 61.4081C20.3366 60.4723 19.8048 57.9495 21.509 58.0515C21.4502 58.1948 21.4524 58.375 21.5526 58.59C21.9536 59.4628 23.1784 58.8809 23.5728 58.3294C24.1612 57.5044 23.7689 56.2517 22.9779 55.6763C22.6052 55.4049 22.056 55.292 21.6049 55.3181C21.3696 55.3745 21.1364 55.4288 20.901 55.4831C20.8487 55.3811 20.7986 55.2812 20.7463 55.1791C20.6853 55.1531 20.6134 55.051 20.5327 55.0163C19.491 54.5625 18.6389 56.2256 18.4014 56.9182C17.898 58.3707 18.0789 60.2357 18.7566 61.6035C19.5804 63.2666 20.7833 64.426 22.2587 65.5267C23.0629 66.1281 24.8913 67.8802 26.0485 67.674C26.2838 67.6305 26.3928 67.4134 26.2751 67.2007Z" fill="#91251C"/>
<path d="M53.1233 90.9701C53.1233 90.9701 53.2868 93.9098 50.9288 93.2238C48.5708 92.5377 37.8728 78.8813 31.298 77.57C24.7209 76.2586 15.6225 73.4752 10.7235 83.6969C5.82447 93.9185 15.4263 97.9872 18.6037 95.1756C18.6037 95.1756 16.4375 90.8659 20.7786 91.9493C25.1197 93.0305 19.0112 102.796 11.5843 97.1144C11.5843 97.1144 11.6867 99.2877 12.4386 99.3312C13.1904 99.3724 -0.48669 100.415 5.31235 87.3552C5.31235 87.3552 3.72584 87.1468 4.47987 85.5727C5.09442 84.2896 9.52052 78.1084 14.3498 75.6963C15.4416 75.1513 16.553 74.7996 17.647 74.7388C23.5768 74.4153 34.1441 73.7227 49.5123 91.6475C49.5123 91.6475 51.2862 93.6167 52.1863 91.3197C52.1819 91.3197 52.0381 89.8911 53.1233 90.9701Z" fill="#91251C"/>
<path d="M31.176 81.4954C30.7728 79.0398 26.97 78.7902 25.1808 78.5079C22.1102 78.0238 18.7411 77.9934 15.9407 79.4784C15.8841 79.5088 15.8427 79.5457 15.8122 79.5848C15.8034 79.5891 15.7969 79.5913 15.7882 79.5957C15.2913 79.8128 15.5615 80.6139 16.065 80.3946C17.2723 79.8649 18.3336 79.3525 19.7 79.4914C21.0511 79.6261 22.4502 79.9517 23.7687 80.2687C25.3813 80.6595 27.4756 81.0981 27.8548 82.9001C28.2122 84.6088 26.946 84.9236 26.2443 86.0548C26.1528 86.2024 26.2007 86.4564 26.3424 86.5606C27.5323 87.4573 29.7312 86.3761 30.3261 85.182C30.738 84.3548 30.2716 83.901 30.4307 83.1563C30.5833 82.4311 31.3286 82.4398 31.176 81.4954Z" fill="#91251C"/>
<path d="M105.633 90.9701C105.633 90.9701 105.469 93.9098 107.827 93.2238C110.185 92.5377 120.883 78.8813 127.458 77.57C134.033 76.2586 143.134 73.4752 148.033 83.6969C152.932 93.9185 143.33 97.9872 140.155 95.1756C140.155 95.1756 142.321 90.8659 137.98 91.9493C133.639 93.0305 139.747 102.796 147.174 97.1144C147.174 97.1144 147.072 99.2877 146.32 99.3312C145.568 99.3724 159.247 100.415 153.448 87.3552C153.448 87.3552 155.035 87.1468 154.281 85.5727C153.666 84.2896 149.24 78.1084 144.411 75.6963C143.319 75.1513 142.207 74.7996 141.113 74.7388C135.184 74.4153 124.616 73.7227 109.248 91.6475C109.248 91.6475 107.474 93.6167 106.574 91.3197C106.572 91.3197 106.718 89.8911 105.633 90.9701Z" fill="#91251C"/>
<path d="M130.233 70.9937C132.809 69.9993 135.365 68.4795 138.076 67.8412C140.316 67.3136 142.077 68.3015 143.11 70.275C143.52 71.0566 143.661 72.2203 144.352 72.7892C144.487 72.8999 144.681 72.8283 144.775 72.711C145.034 72.3875 145.233 72.0901 145.368 71.7644C146.061 73.0193 147.006 74.1201 148.565 74.3567C150.169 74.5977 152.317 73.7249 152.952 72.1682C153.019 72.0032 152.88 71.7579 152.686 71.7688C151.304 71.8447 150.537 70.097 149.868 68.8334C153.037 69.602 156.909 68.0388 157.709 64.6779C158.016 63.386 157.569 61.7273 156.277 61.1324C155.268 60.6678 154.1 61.0781 154.087 62.307C154.085 62.409 154.124 62.5219 154.218 62.5762C154.834 62.9366 156.268 62.3569 155.275 63.7139C154.333 64.9992 152.431 65.0621 151.012 65.0144C148.645 64.934 146.49 64.2545 144.117 64.832C143.045 65.0925 141.97 65.175 140.894 65.403C139.575 65.6831 138.283 66.2454 137.058 66.786C134.65 67.8477 132.17 68.8746 130.052 70.414C130.047 70.4161 130.045 70.4205 130.041 70.4248C130.017 70.4335 129.993 70.4444 129.969 70.4531C129.605 70.5898 129.871 71.1348 130.233 70.9937Z" fill="#91251C"/>
<path d="M131.76 67.6718C132.917 67.8781 134.744 66.1238 135.548 65.5246C137.023 64.4238 138.224 63.2644 139.05 61.6014C139.728 60.2335 139.909 58.3685 139.405 56.9161C139.165 56.2256 138.316 54.5604 137.272 55.0142C137.191 55.0489 137.119 55.1509 137.058 55.177C137.008 55.279 136.956 55.3789 136.903 55.4809C136.668 55.4267 136.435 55.3724 136.199 55.3159C135.751 55.2877 135.199 55.4028 134.826 55.6742C134.035 56.2495 133.641 57.5023 134.232 58.3273C134.626 58.8809 135.849 59.4628 136.252 58.5878C136.352 58.3729 136.352 58.1927 136.295 58.0494C137.997 57.9473 137.468 60.4702 136.901 61.406C136.465 62.1311 135.942 62.8215 135.404 63.4772C134.378 64.7234 133.026 65.568 131.961 66.7317C131.95 66.7382 131.941 66.7382 131.93 66.7447C131.658 66.938 131.688 66.9054 131.525 67.2007C131.414 67.4135 131.523 67.6306 131.76 67.6718Z" fill="#91251C"/>
<path d="M128.328 83.1606C128.487 83.9031 128.023 84.3591 128.433 85.1863C129.025 86.3782 131.226 87.4616 132.416 86.5628C132.556 86.4586 132.606 86.2045 132.512 86.0569C131.813 84.9236 130.546 84.6088 130.904 82.9001C131.281 81.098 133.377 80.6595 134.99 80.2687C136.308 79.9495 137.707 79.626 139.059 79.4892C140.423 79.3503 141.486 79.8648 142.694 80.3924C143.197 80.6139 143.467 79.8106 142.97 79.5935C142.962 79.5891 142.955 79.5869 142.946 79.5826C142.916 79.5413 142.875 79.5044 142.818 79.4762C140.018 77.9912 136.648 78.0216 133.578 78.5057C131.789 78.788 127.986 79.0376 127.583 81.4932C127.426 82.4398 128.171 82.4311 128.328 83.1606Z" fill="#91251C"/>
<path d="M59.0161 36.197C59.2362 35.7541 59.4476 35.2569 59.4956 34.7641C59.5326 34.3972 59.4759 33.9803 59.1905 33.7154C58.8919 33.4397 58.0507 33.405 57.909 32.9512C58.0507 33.0337 58.1771 33.1444 58.3471 33.1965C58.5585 33.2617 58.7502 33.2964 58.966 33.2443C59.3539 33.1531 59.866 32.8274 59.9903 32.441C60.0099 32.3824 59.975 32.3281 59.9096 32.3281C59.5195 32.3324 59.2733 32.2608 59.0096 31.9655C58.759 31.6898 58.6631 31.3663 58.6173 31.0037C58.5432 30.4088 58.6151 29.6554 58.8483 29.0974C59.0815 28.5438 59.3822 27.9728 59.8028 27.5429C59.9576 27.3844 60.1406 27.252 60.3062 27.1087C59.89 27.849 59.6481 28.6828 59.5675 29.5295C59.5065 30.1787 59.5065 30.8365 59.6329 31.477C59.6743 31.6854 59.707 32.0067 59.9162 32.1066C59.9772 32.3107 60.0556 32.5061 60.1624 32.6798C60.5242 33.2725 61.0842 33.6894 61.7162 33.9369C61.9233 34.0433 62.1521 34.1214 62.4049 34.1562C62.5204 34.1714 62.6337 34.18 62.7448 34.1844C62.8429 34.1952 62.941 34.2018 63.0391 34.2061C63.063 34.2061 63.0783 34.1974 63.0892 34.1866C65.0396 34.1019 66.43 32.5408 65.8045 31.3185C65.105 29.9572 63.6166 30.6303 63.7321 31.6116C63.7321 31.6116 63.6253 31.9959 64.0066 32.1392C64.3858 32.2825 63.8018 32.8665 63.1197 32.593C62.4398 32.3172 60.9382 31.6246 62.4572 28.4287C64.072 25.0331 67.5872 23.0357 73.4189 26.7852C77.2021 29.2169 78.1218 27.6732 77.8428 26.4617C77.8472 26.3987 77.8276 26.3358 77.7905 26.275C77.6816 25.9602 77.4898 25.6888 77.2523 25.5411C76.751 24.575 76.7881 23.2224 76.9428 22.2389C77.0583 21.4985 77.5247 20.9014 78.0455 20.3891C78.6731 19.7746 80.0613 19.8094 79.863 20.9297C79.802 21.2684 79.6059 21.5571 79.3509 21.7786C79.1264 21.4008 78.4552 21.5962 78.6339 22.0391C78.7385 22.2953 78.793 22.393 78.9848 22.5949C79.1046 22.7187 79.3117 22.7426 79.4577 22.6557C80.3882 22.1021 80.9592 20.947 80.5299 19.9071C80.0613 18.7759 78.6448 19.0451 77.8385 19.564C75.9425 20.7842 75.4021 24.2667 76.7009 26.1751C76.7227 26.7483 76.5723 27.4278 75.6548 27.202C74.5303 26.922 72.7847 25.3153 69.8711 24.6054C69.8907 24.5967 69.9059 24.5793 69.9147 24.5598C70.4551 24.7074 71.1285 24.8442 71.6188 24.6076C71.8586 24.4925 72.5864 23.8325 72.1963 23.5611C71.9392 23.3809 71.621 23.6783 71.7627 23.9367C71.3007 24.0821 70.6687 24.0083 70.2503 23.9801C69.9473 23.9606 69.6422 23.8802 69.3655 23.7456C69.1824 23.6284 69.0059 23.4938 68.8294 23.3505C68.7618 23.281 68.6899 23.2202 68.6354 23.1399C68.6267 23.1268 68.6223 23.1116 68.6136 23.0986C68.6114 23.0943 68.6158 23.0899 68.6136 23.0834C68.5417 22.9336 68.4589 22.7816 68.4066 22.6231C68.326 22.4473 68.3151 22.2584 68.3674 22.0608C68.7509 21.9262 68.9253 21.9761 68.8882 22.2128C68.886 22.2736 68.9579 22.2931 69.0037 22.2823C69.0887 22.2627 69.1432 22.2063 69.1824 22.1368C69.1955 22.126 69.2086 22.1086 69.2107 22.0869C69.2107 22.0804 69.2107 22.0738 69.2129 22.0673C69.2609 21.9197 69.2456 21.733 69.2129 21.6114C69.0974 21.1815 68.7596 21.0599 68.3543 21.0274C68.3521 21.0187 68.339 21.0165 68.3347 21.0122C68.4022 20.8363 68.5047 20.68 68.6637 20.5345C68.788 20.4216 69.1388 20.1198 69.3785 20.0981C69.2521 20.2414 69.3742 20.4303 69.6357 20.465C70.0716 20.5237 70.3026 20.1068 70.2045 19.716C70.0737 19.2014 69.5028 18.8128 68.9906 18.7846C68.8555 18.7759 68.7117 18.7911 68.5657 18.8258C68.0296 18.8063 67.4652 18.9735 67.0794 19.3382C66.5738 19.8159 66.4147 20.5172 66.4714 21.1859C66.454 21.1967 66.4387 21.2097 66.4235 21.2206C66.3995 21.2141 66.3821 21.2119 66.3821 21.2119C66.3821 21.2119 66.3494 21.238 66.3123 21.3009C66.005 21.5484 65.7937 21.8676 65.7806 22.2953C65.7784 22.3756 65.7915 22.4538 65.8024 22.532C64.4643 22.5233 63.3856 22.3018 62.0867 21.4703C61.5593 21.1337 60.1036 19.4164 61.4743 19.4946C61.9799 19.5228 61.9734 18.7564 61.4743 18.7195C59.1643 18.5523 57.6911 20.9123 58.9137 22.9879C59.5762 24.1125 60.6179 24.816 61.9603 24.8876C62.1957 24.9007 62.4136 24.8985 62.625 24.8855C62.017 25.235 61.4591 25.6562 60.9687 26.1794C60.814 26.3445 60.6898 26.5268 60.5634 26.7092C60.2474 26.833 59.2755 27.3345 58.6435 28.1335C57.9592 29.0019 57.5822 30.0701 57.1855 31.0884C56.9785 31.6203 56.7431 32.1783 56.3705 32.6147C56.0153 33.0315 55.7298 33.4918 55.3462 33.8848C54.9431 34.2973 54.5116 34.7424 54.0387 35.0745C53.5135 35.4436 53.0101 35.626 52.3693 35.6738C52.3127 35.6781 52.2713 35.7541 52.3127 35.7975C52.474 35.9799 52.7573 36.0103 52.9883 36.0494C53.3675 36.1145 53.7336 36.1123 54.1171 36.0754C54.8755 36.0038 55.5642 35.8844 56.1983 35.4458C56.4511 35.27 56.6996 35.0919 56.8979 34.8553C57.0221 34.7076 57.0461 34.5383 57.2444 34.5513C57.3991 34.56 57.4797 34.6968 57.5843 34.8053C57.933 35.1592 58.1924 35.4198 58.2512 35.9321C58.2926 36.3099 58.2904 36.6725 58.3057 37.0481C58.3079 37.0959 58.3689 37.1349 58.4146 37.1132C58.7067 36.9786 58.8832 36.4662 59.0161 36.197ZM66.7918 21.4008C66.7373 21.3617 66.685 21.3313 66.637 21.3074C66.5629 20.7169 66.637 20.1177 67.0271 19.6248C67.2756 19.3122 67.6395 19.1168 68.0296 19.0299C67.7724 19.1689 67.5458 19.3534 67.4041 19.5619C66.9596 20.2132 66.9182 20.9383 67.0969 21.6375C66.9879 21.5419 66.8855 21.4594 66.7918 21.4008ZM61.3959 25.9775C61.8884 25.5086 62.4463 25.1395 63.0434 24.8399C63.5773 24.7639 64.0829 24.6184 64.6561 24.3861C65.1944 24.169 65.8307 24.3579 66.4038 24.2797C66.5455 24.3144 66.6283 24.119 66.77 24.1646C66.9378 24.2189 67.099 24.2428 67.2668 24.2667C66.9879 24.2623 66.7002 24.2645 66.4038 24.2797C63.6166 24.4143 61.9167 25.8299 60.9382 27.3258C60.8249 27.4083 59.5609 29.2646 59.744 31.1361C59.7636 31.3272 59.7876 31.5291 59.8268 31.7267C59.7113 31.3815 59.7004 30.7844 59.6939 30.6455C59.6699 30.0375 59.7135 29.4188 59.8399 28.8217C60.0818 27.6971 60.5569 26.7722 61.3959 25.9775Z" fill="#91251C"/>
<path d="M100.464 37.0437C100.509 37.0654 100.568 37.0264 100.57 36.9764C100.586 36.6008 100.583 36.2382 100.627 35.8605C100.686 35.3481 100.943 35.0897 101.292 34.7336C101.399 34.6251 101.479 34.4883 101.634 34.4796C101.83 34.4688 101.856 34.6359 101.98 34.7858C102.179 35.0224 102.427 35.2004 102.68 35.3763C103.314 35.8149 104.003 35.9343 104.761 36.0059C105.143 36.0407 105.511 36.045 105.89 35.9799C106.123 35.9386 106.404 35.9104 106.566 35.728C106.605 35.6824 106.563 35.6064 106.509 35.6021C105.868 35.5543 105.367 35.372 104.84 35.0029C104.367 34.6707 103.935 34.2278 103.532 33.8131C103.146 33.4179 102.861 32.9598 102.508 32.543C102.135 32.1044 101.9 31.5486 101.693 31.0167C101.296 29.9984 100.921 28.9302 100.235 28.0618C99.6028 27.2606 98.6309 26.7613 98.3149 26.6354C98.1885 26.453 98.0621 26.2684 97.9073 26.1056C97.417 25.5824 96.8591 25.1612 96.2511 24.8116C96.4625 24.8246 96.6804 24.8268 96.9158 24.8138C98.2604 24.7421 99.3021 24.0387 99.9624 22.914C101.185 20.8384 99.7118 18.4784 97.4018 18.6456C96.9027 18.6825 96.8962 19.4511 97.4018 19.4207C98.7725 19.3404 97.3168 21.0599 96.7894 21.3964C95.4905 22.228 94.4118 22.4494 93.0737 22.4581C93.0846 22.3799 93.0977 22.3018 93.0955 22.2215C93.0824 21.7937 92.8732 21.4746 92.5638 21.2271C92.5267 21.1641 92.494 21.1381 92.494 21.1381C92.494 21.1381 92.4788 21.1402 92.4526 21.1467C92.4352 21.1359 92.4221 21.1229 92.4047 21.112C92.4613 20.4433 92.3023 19.742 91.7967 19.2644C91.4109 18.9018 90.8465 18.7325 90.3126 18.752C90.1666 18.7194 90.0227 18.7021 89.8876 18.7107C89.3755 18.739 88.8045 19.1298 88.6738 19.6443C88.5757 20.0351 88.8067 20.452 89.2426 20.3934C89.5019 20.3586 89.6239 20.1697 89.4975 20.0264C89.7394 20.0482 90.0881 20.3499 90.2145 20.4628C90.3736 20.6061 90.476 20.7625 90.5436 20.9405C90.5371 20.947 90.5262 20.9492 90.524 20.9557C90.1165 20.9904 89.7809 21.1098 89.6632 21.5397C89.6305 21.6613 89.6174 21.848 89.6653 21.9957C89.6653 22.0022 89.6653 22.0087 89.6675 22.0152C89.6697 22.0391 89.6828 22.0543 89.6959 22.0651C89.7329 22.1346 89.7874 22.1911 89.8724 22.2106C89.9181 22.2215 89.9879 22.2019 89.9879 22.1411C89.9487 21.9045 90.123 21.8524 90.5087 21.987C90.561 22.1867 90.5501 22.3734 90.4717 22.5515C90.4194 22.71 90.3344 22.8598 90.2646 23.0117C90.2625 23.0183 90.2668 23.0204 90.2646 23.0269C90.2559 23.04 90.2516 23.0552 90.2429 23.066C90.1862 23.1464 90.1143 23.2093 90.0467 23.2766C89.8724 23.4221 89.6937 23.5545 89.5106 23.6739C89.2339 23.8085 88.9288 23.8889 88.6258 23.9084C88.2074 23.9345 87.5754 24.0105 87.1134 23.8628C87.2551 23.6045 86.9369 23.307 86.6797 23.485C86.2897 23.7564 87.0197 24.4165 87.2573 24.5315C87.7498 24.7682 88.421 24.6314 88.9636 24.4838C88.9723 24.5033 88.9876 24.5207 89.0072 24.5294C86.0935 25.2393 84.3479 26.8481 83.2256 27.126C82.3081 27.354 82.1578 26.6723 82.1796 26.1013C83.4762 24.1907 82.9358 20.7103 81.0398 19.4902C80.2356 18.9713 78.8169 18.7021 78.3506 19.8332C77.9191 20.8754 78.4901 22.0282 79.4206 22.5819C79.5688 22.6709 79.7736 22.6448 79.8935 22.5211C80.0875 22.3191 80.1419 22.2214 80.2465 21.9653C80.4252 21.5223 79.754 21.3269 79.5274 21.7047C79.2724 21.4833 79.0763 21.1945 79.0153 20.8558C78.8191 19.7377 80.2051 19.7029 80.8328 20.3174C81.3558 20.8298 81.8222 21.4268 81.9377 22.1672C82.0902 23.1507 82.1273 24.5033 81.6282 25.4695C81.3885 25.6171 81.1967 25.8885 81.0899 26.2055C81.0529 26.2663 81.0311 26.3292 81.0376 26.3922C80.7565 27.6037 81.6783 29.1473 85.4615 26.7135C91.2933 22.964 94.8106 24.9614 96.4233 28.3571C97.94 31.5508 96.4407 32.2455 95.7608 32.5191C95.0808 32.7948 94.4946 32.2108 94.8738 32.0653C95.253 31.922 95.1484 31.5378 95.1484 31.5378C95.2639 30.5564 93.7733 29.8855 93.0759 31.2446C92.4483 32.467 93.8386 34.028 95.7891 34.1127C95.8 34.1257 95.8174 34.1322 95.8414 34.1322C95.9395 34.1301 96.0354 34.1214 96.1334 34.1105C96.2446 34.1062 96.3579 34.0975 96.4734 34.0823C96.7262 34.0497 96.955 33.9716 97.1642 33.863C97.7962 33.6155 98.3563 33.1987 98.718 32.6059C98.8248 32.4301 98.9033 32.2347 98.9643 32.0328C99.1757 31.9329 99.2084 31.6094 99.2476 31.4031C99.374 30.7627 99.374 30.1048 99.313 29.4556C99.2323 28.6067 98.9904 27.773 98.5742 27.0327C98.7398 27.176 98.9229 27.3084 99.0776 27.4691C99.4982 27.8989 99.799 28.4678 100.032 29.0236C100.265 29.5816 100.337 30.3349 100.263 30.9298C100.217 31.2924 100.121 31.6159 99.8709 31.8916C99.605 32.1869 99.3609 32.2586 98.9708 32.2542C98.9055 32.2521 98.8706 32.3063 98.8902 32.3671C99.0144 32.7536 99.5265 33.0793 99.9144 33.1726C100.13 33.2225 100.322 33.19 100.533 33.1248C100.703 33.0727 100.83 32.962 100.971 32.8795C100.83 33.3354 99.9907 33.368 99.69 33.6437C99.4045 33.9086 99.3478 34.3255 99.3849 34.6924C99.435 35.1874 99.6442 35.6846 99.8643 36.1253C99.9907 36.3946 100.167 36.9048 100.464 37.0437ZM91.7749 21.5636C91.9536 20.8645 91.9122 20.1415 91.4676 19.488C91.326 19.2796 91.0993 19.095 90.8422 18.9561C91.2322 19.0429 91.5962 19.2383 91.8446 19.551C92.2369 20.0438 92.311 20.643 92.2369 21.2336C92.1889 21.2575 92.1366 21.2879 92.0822 21.3269C91.9885 21.3877 91.886 21.4681 91.7749 21.5636ZM99.0362 28.75C99.1648 29.3449 99.2084 29.9659 99.1822 30.5738C99.1779 30.7149 99.167 31.312 99.0493 31.6572C99.0885 31.4574 99.1125 31.2577 99.1321 31.0644C99.313 29.1951 98.0534 27.3388 97.9379 27.2541C96.9594 25.7582 95.2595 24.3405 92.4722 24.208C92.1759 24.1928 91.8904 24.1907 91.6093 24.195C91.7771 24.1711 91.9383 24.1472 92.1061 24.093C92.2478 24.0474 92.3306 24.2449 92.4722 24.208C93.0454 24.2862 93.6817 24.0973 94.22 24.3144C94.7932 24.5446 95.2988 24.6922 95.8327 24.7682C96.4298 25.0678 96.9855 25.4347 97.4802 25.9059C98.317 26.7005 98.7921 27.6232 99.0362 28.75Z" fill="#91251C"/>
<path d="M99.858 92.6007C99.6379 93.0436 99.4287 93.5408 99.3786 94.0336C99.3415 94.4005 99.3982 94.8174 99.6836 95.0823C99.9844 95.358 100.823 95.3906 100.965 95.8465C100.823 95.764 100.697 95.6533 100.527 95.6012C100.316 95.536 100.124 95.5013 99.9081 95.5534C99.5202 95.6446 99.0081 95.9703 98.8839 96.3589C98.8642 96.4175 98.8991 96.4718 98.9645 96.4718C99.3546 96.4674 99.5987 96.5391 99.8645 96.8344C100.115 97.1101 100.211 97.4336 100.257 97.7962C100.331 98.3911 100.259 99.1444 100.026 99.7024C99.7948 100.258 99.4919 100.827 99.0713 101.257C98.9165 101.415 98.7335 101.548 98.5679 101.691C98.9841 100.951 99.2282 100.117 99.3088 99.2704C99.3698 98.6212 99.3698 97.9634 99.2434 97.3229C99.202 97.1144 99.1715 96.7931 98.9601 96.6932C98.8991 96.4892 98.8207 96.2938 98.7139 96.1201C98.3521 95.5274 97.792 95.1105 97.1601 94.863C96.953 94.7544 96.7242 94.6784 96.4692 94.6437C96.3537 94.6285 96.2426 94.6198 96.1293 94.6155C96.0312 94.6046 95.9331 94.5981 95.8372 94.5938C95.8133 94.5938 95.798 94.6025 95.7849 94.6133C93.8345 94.698 92.4441 96.259 93.0717 97.4814C93.7691 98.8427 95.2597 98.1696 95.1442 97.1883C95.1442 97.1883 95.251 96.804 94.8696 96.6607C94.4904 96.5152 95.0745 95.9334 95.7566 96.2069C96.4365 96.4826 97.9381 97.1752 96.4191 100.369C94.8064 103.765 91.2891 105.762 85.4574 102.013C81.6742 99.5808 80.7545 101.125 81.0335 102.336C81.0291 102.399 81.0487 102.46 81.0858 102.523C81.1947 102.838 81.3843 103.111 81.624 103.257C82.1253 104.223 82.0882 105.575 81.9335 106.559C81.818 107.299 81.3516 107.896 80.8286 108.409C80.201 109.023 79.6714 109.216 79.2966 109.216L78.3442 108.891C78.8106 110.022 80.0462 109.961 81.0335 109.234C83.0624 107.74 83.4699 104.531 82.1732 102.623C82.1514 102.049 82.3018 101.37 83.2193 101.596C84.3438 101.874 86.0894 103.482 89.003 104.192C88.9834 104.203 88.9682 104.221 88.9595 104.238C88.419 104.09 87.7456 103.953 87.2531 104.19C87.0156 104.305 86.2855 104.965 86.6756 105.237C86.9327 105.417 87.2509 105.119 87.1093 104.859C87.5713 104.713 88.2033 104.787 88.6217 104.815C88.9246 104.835 89.2297 104.915 89.5065 105.05C89.6895 105.167 89.866 105.3 90.0426 105.445C90.1101 105.512 90.182 105.575 90.2365 105.656C90.2452 105.669 90.2496 105.684 90.2583 105.697C90.2605 105.701 90.2561 105.706 90.2583 105.71C90.3302 105.86 90.413 106.012 90.4653 106.17C90.5438 106.346 90.5569 106.535 90.5024 106.735C90.1188 106.869 89.9445 106.819 89.9815 106.581C89.9837 106.52 89.9118 106.5 89.866 106.511C89.781 106.531 89.7266 106.587 89.6895 106.657C89.6743 106.667 89.6634 106.683 89.6612 106.706C89.659 106.713 89.6612 106.72 89.659 106.726C89.6111 106.874 89.6241 107.06 89.6568 107.182C89.7723 107.612 90.1101 107.733 90.5176 107.766C90.5198 107.775 90.5329 107.775 90.5372 107.781C90.4697 107.957 90.3673 108.113 90.2082 108.259C90.084 108.372 89.7331 108.674 89.4934 108.695C89.6198 108.552 89.4977 108.363 89.2384 108.328C88.8026 108.27 88.5716 108.687 88.6696 109.077C88.8004 109.592 89.3713 109.983 89.8856 110.011C90.0208 110.02 90.1646 110.004 90.3106 109.97C90.8467 109.989 91.4111 109.82 91.7947 109.457C92.3003 108.98 92.4594 108.278 92.4027 107.61C92.4201 107.599 92.4354 107.586 92.4506 107.575C92.4746 107.581 92.4921 107.584 92.4921 107.584C92.4921 107.584 92.5247 107.558 92.5618 107.495C92.8712 107.247 93.0805 106.928 93.0935 106.498C93.0957 106.418 93.0826 106.34 93.0717 106.261C94.4098 106.27 95.4886 106.492 96.7874 107.323C97.3148 107.66 98.7705 109.377 97.3998 109.299C96.8942 109.271 96.9007 110.037 97.3998 110.074C99.7098 110.241 101.183 107.881 99.9582 105.805C99.2957 104.681 98.254 103.977 96.9116 103.906C96.6763 103.893 96.4583 103.895 96.2469 103.908C96.855 103.558 97.4128 103.137 97.9032 102.614C98.0579 102.449 98.1821 102.267 98.3107 102.084C98.6245 101.96 99.5987 101.459 100.231 100.658C100.915 99.7914 101.292 98.7211 101.689 97.7028C101.896 97.1709 102.131 96.6151 102.504 96.1765C102.859 95.7597 103.144 95.2994 103.528 94.9064C103.931 94.4917 104.363 94.0488 104.835 93.7166C105.361 93.3475 105.864 93.1652 106.505 93.1174C106.561 93.1131 106.601 93.0371 106.561 92.9936C106.4 92.8113 106.117 92.783 105.886 92.7418C105.507 92.6767 105.141 92.681 104.757 92.7157C104.001 92.7874 103.31 92.9068 102.676 93.3454C102.423 93.5191 102.175 93.6993 101.976 93.9359C101.852 94.0835 101.828 94.2529 101.63 94.2399C101.475 94.2312 101.394 94.0944 101.29 93.9858C100.941 93.632 100.682 93.3714 100.625 92.859C100.582 92.4813 100.586 92.1187 100.568 91.7431C100.566 91.6953 100.507 91.6541 100.462 91.6779C100.167 91.8212 99.9909 92.3315 99.858 92.6007ZM92.0824 107.397C92.139 107.436 92.1891 107.466 92.2371 107.49C92.3112 108.081 92.2371 108.682 91.8448 109.173C91.5964 109.486 91.2324 109.681 90.8424 109.768C91.0995 109.629 91.3261 109.444 91.4678 109.236C91.9124 108.585 91.9538 107.859 91.7751 107.16C91.8862 107.258 91.9886 107.34 92.0824 107.397ZM97.4782 102.822C96.9857 103.291 96.4278 103.658 95.8307 103.96C95.2968 104.036 94.7912 104.184 94.218 104.414C93.6798 104.631 93.0434 104.442 92.4703 104.52C92.3286 104.485 92.2458 104.681 92.1041 104.635C91.9363 104.581 91.7751 104.557 91.6073 104.533C91.8862 104.54 92.1739 104.535 92.4703 104.52C95.2576 104.388 96.9574 102.97 97.9359 101.474C98.0492 101.392 99.3132 99.5352 99.1301 97.6637C99.1105 97.4727 99.0865 97.2708 99.0473 97.071C99.1628 97.4162 99.1737 98.0133 99.1802 98.1544C99.2042 98.7623 99.1606 99.3811 99.032 99.9782C98.7923 101.103 98.3172 102.026 97.4782 102.822Z" fill="#91251C"/>
<path d="M58.4104 91.7539C58.3646 91.7322 58.3036 91.7735 58.3014 91.8212C58.2862 92.1968 58.2884 92.5594 58.247 92.9372C58.1881 93.4496 57.9288 93.7101 57.5823 94.064C57.4755 94.1726 57.397 94.3093 57.2401 94.318C57.044 94.3289 57.0178 94.1617 56.8936 94.0141C56.6953 93.7774 56.4447 93.5994 56.1941 93.4235C55.5599 92.985 54.8713 92.8655 54.1129 92.7939C53.7315 92.757 53.3632 92.7548 52.984 92.82C52.753 92.8612 52.4697 92.8894 52.3084 93.0718C52.2692 93.1174 52.3106 93.1934 52.3651 93.1977C53.0058 93.2455 53.507 93.4279 54.0344 93.797C54.5073 94.1291 54.9388 94.5721 55.342 94.9867C55.7255 95.3819 56.0132 95.84 56.3662 96.2568C56.7389 96.6954 56.9721 97.2512 57.1813 97.7831C57.5779 98.8014 57.9527 99.8696 58.6392 100.738C59.2712 101.539 60.2453 102.039 60.5592 102.162C60.6856 102.345 60.812 102.529 60.9645 102.694C61.4548 103.215 62.0127 103.639 62.6207 103.988C62.4094 103.975 62.1914 103.973 61.9561 103.986C60.6115 104.058 59.5698 104.763 58.9095 105.886C57.6869 107.961 59.1579 110.321 61.4679 110.154C61.967 110.117 61.9735 109.351 61.4679 109.379C60.0972 109.457 61.5529 107.74 62.0803 107.403C63.3791 106.572 64.4579 106.35 65.7959 106.342C65.785 106.42 65.772 106.498 65.7742 106.578C65.7872 107.008 65.9986 107.325 66.3059 107.573C66.3429 107.636 66.3756 107.662 66.3756 107.662C66.3756 107.662 66.3909 107.66 66.417 107.653C66.4345 107.664 66.4475 107.677 66.465 107.688C66.4083 108.357 66.5674 109.058 67.073 109.535C67.4587 109.898 68.0232 110.065 68.5593 110.048C68.7053 110.08 68.8491 110.098 68.9842 110.089C69.4963 110.059 70.0673 109.67 70.1981 109.156C70.2983 108.765 70.0651 108.348 69.6293 108.406C69.3699 108.441 69.2479 108.63 69.3743 108.773C69.1346 108.752 68.7837 108.45 68.6595 108.337C68.5004 108.194 68.398 108.037 68.3304 107.862C68.3348 107.855 68.3479 107.853 68.35 107.846C68.7576 107.812 69.0932 107.69 69.2087 107.262C69.2414 107.141 69.2544 106.954 69.2087 106.806C69.2087 106.8 69.2087 106.793 69.2065 106.787C69.2021 106.763 69.1912 106.748 69.1782 106.737C69.1411 106.667 69.0845 106.611 68.9995 106.591C68.9537 106.581 68.884 106.6 68.884 106.661C68.9232 106.898 68.7488 106.95 68.3631 106.813C68.3108 106.613 68.3217 106.426 68.4023 106.251C68.4547 106.092 68.5396 105.942 68.6094 105.79C68.6116 105.784 68.6072 105.782 68.6094 105.775C68.6181 105.764 68.6225 105.747 68.6312 105.736C68.6878 105.656 68.7576 105.593 68.8251 105.525C68.9995 105.38 69.1782 105.247 69.3612 105.128C69.638 104.993 69.9431 104.913 70.246 104.894C70.6644 104.868 71.2964 104.792 71.7584 104.939C71.6168 105.198 71.9349 105.497 72.1921 105.317C72.5822 105.046 71.8521 104.386 71.6146 104.27C71.1221 104.034 70.4509 104.171 69.9104 104.32C69.9017 104.301 69.8864 104.283 69.8668 104.275C72.7805 103.565 74.5261 101.956 75.6484 101.678C76.5659 101.45 76.7163 102.132 76.6945 102.703C75.3978 104.614 75.9383 108.094 77.8342 109.314C78.6384 109.833 80.0571 110.102 80.5234 108.971L80.4232 108.852C79.6714 109.596 78.6667 109.103 78.0391 108.489C77.5161 107.977 77.0497 107.38 76.9342 106.639C76.7816 105.658 76.7424 104.303 77.2436 103.337C77.4834 103.189 77.6751 102.918 77.7819 102.601C77.819 102.54 77.8386 102.477 77.8342 102.414C78.1154 101.203 77.1935 99.659 73.4103 102.093C67.5786 105.842 64.0634 103.845 62.4486 100.449C60.9318 97.2556 62.4312 96.5608 63.1111 96.2851C63.7932 96.0093 64.3772 96.5934 63.998 96.7388C63.6188 96.8821 63.7235 97.2664 63.7235 97.2664C63.608 98.2478 65.0986 98.9208 65.7959 97.5595C66.4214 96.3372 65.0332 94.7761 63.0806 94.6915C63.0697 94.6784 63.0522 94.6698 63.0304 94.6719C62.9324 94.6741 62.8343 94.6828 62.7362 94.6915C62.6251 94.698 62.5118 94.7045 62.3963 94.7219C62.1435 94.7544 61.9147 94.8326 61.7076 94.939C61.0756 95.1865 60.5134 95.6033 60.1538 96.1961C60.047 96.3719 59.9686 96.5673 59.9076 96.7692C59.6962 96.8691 59.6635 97.1926 59.6243 97.3989C59.4979 98.0415 59.4979 98.6972 59.5589 99.3464C59.6395 100.193 59.8814 101.029 60.2976 101.767C60.1298 101.624 59.949 101.491 59.7942 101.333C59.3736 100.903 59.0729 100.332 58.8397 99.7784C58.6065 99.2204 58.5346 98.467 58.6087 97.8722C58.6523 97.5096 58.7482 97.1861 59.001 96.9104C59.2668 96.6151 59.5109 96.5434 59.901 96.5478C59.9664 96.5478 60.0013 96.4957 59.9816 96.4349C59.8574 96.0484 59.3453 95.7227 58.9574 95.6294C58.7395 95.5773 58.5477 95.612 58.3385 95.6772C58.1685 95.7293 58.0421 95.8422 57.9004 95.9247C58.0421 95.4687 58.8833 95.4362 59.1819 95.1604C59.4673 94.8955 59.524 94.4787 59.487 94.1118C59.4368 93.6168 59.2276 93.1196 59.0075 92.6767C58.8833 92.4053 58.7068 91.8929 58.4104 91.7539ZM67.0991 107.234C66.9204 107.933 66.9619 108.658 67.4064 109.31C67.5481 109.518 67.7747 109.705 68.0319 109.842C67.6418 109.755 67.2778 109.559 67.0294 109.247C66.6393 108.754 66.5652 108.155 66.6393 107.564C66.6873 107.54 66.7396 107.51 66.794 107.471C66.8856 107.412 66.988 107.33 67.0991 107.234ZM59.8378 100.05C59.7114 99.4549 59.6678 98.834 59.6918 98.2261C59.6962 98.0871 59.7071 97.4879 59.8247 97.1448C59.7855 97.3446 59.7615 97.5443 59.7419 97.7354C59.561 99.6047 60.8228 101.463 60.9362 101.546C61.9147 103.042 63.6145 104.459 66.4018 104.592C66.6982 104.607 66.9836 104.609 67.2648 104.605C67.097 104.629 66.9335 104.653 66.7679 104.707C66.6262 104.752 66.5434 104.555 66.4018 104.592C65.8286 104.511 65.1923 104.703 64.654 104.485C64.0809 104.255 63.5753 104.108 63.0413 104.032C62.4442 103.732 61.8885 103.363 61.3938 102.894C60.557 102.099 60.0819 101.174 59.8378 100.05Z" fill="#91251C"/>
<path d="M69.3221 45.9325H69.0584C68.8187 44.8534 68.2216 44.0024 67.0187 44.0024C66.2864 44.0024 65.7242 44.5017 65.4953 44.9229C65.0486 45.7523 65.0246 47.3654 65.0246 47.9907C65.0246 49.9447 65.2643 51.3538 67.0753 51.3538C68.1867 51.3538 68.8863 50.4332 69.1827 49.4345H69.4573V51.5014H69.1478L68.8274 51.0346C68.2892 51.4884 67.6703 51.6708 67.0295 51.6708C64.9091 51.6708 63.7192 49.8427 63.7192 47.6607C63.7192 45.4223 65.4605 43.7418 67.0753 43.7418C67.7618 43.7418 68.2085 43.9568 68.7599 44.3432L69.15 44.0024H69.3221V45.9325Z" fill="#91251C"/>
<path d="M71.5559 51.4969V51.2364H72.4603L74.9469 43.8068H75.3936L77.7538 51.2364H78.5557V51.4969H75.6682V51.2364H76.5966L75.8055 48.7374H73.6175L72.8046 51.2364H73.7897V51.4969H71.5559ZM75.6922 48.4182L74.7529 45.3396H74.7289L73.7199 48.4182H75.6922Z" fill="#91251C"/>
<path d="M80.9027 51.5316H80.7415V49.5776H80.9594C81.2688 50.6111 82.0599 51.4057 83.1713 51.4057C84.1564 51.4057 85.0956 50.7587 85.0956 49.7578C85.0956 49.087 84.9344 48.7808 84.0539 48.4291C83.629 48.2706 81.8551 47.6909 81.6829 47.578C81.0182 47.1699 80.7545 46.4751 80.7545 45.839C80.7545 45.3722 80.8918 44.9748 81.2253 44.5428C81.5696 44.0999 82.1296 43.7373 83.0014 43.7373C83.5287 43.7373 84.2741 44.0673 84.5029 44.2367L84.9387 43.9067H85.1V45.6783H84.8712C84.6184 44.736 83.9428 43.9978 82.9229 43.9978C82.1427 43.9978 81.295 44.5319 81.295 45.383C81.295 47.2697 85.6383 46.0539 85.6383 49.1434C85.6383 50.7001 84.6532 51.6663 83.1517 51.6663C82.511 51.6663 81.8681 51.4969 81.3996 51.0301L80.9027 51.5316Z" fill="#91251C"/>
<path d="M87.6628 51.4969V51.2364H88.5672L91.0538 43.8068H91.5005L93.8607 51.2364H94.6627V51.4969H91.7751V51.2364H92.7035L91.9124 48.7374H89.7244L88.9116 51.2364H89.8966V51.4969H87.6628ZM91.7991 48.4182L90.8598 45.3396H90.8359L89.8269 48.4182H91.7991Z" fill="#91251C"/>
<path d="M38.9954 70.7787V70.3814H40.4097V59.6105H38.9954V59.2131H47.5185L47.658 62.2788H47.3441C46.8037 60.1836 46.5051 59.6126 44.3237 59.6126H42.1052V64.6518C43.659 64.6344 44.3585 64.5823 44.5329 62.8498H44.9339V67.1095H44.5503C44.4283 65.3444 43.7287 65.0839 42.1052 65.0839V70.3814H43.6067V70.7787H38.9954Z" fill="#91251C"/>
<path d="M50.7634 70.7787V70.3814H52.1952V59.6105H50.7634V59.2131H55.4968V59.6105H53.8907V70.3814H57.0158C58.4475 70.3814 59.1296 68.6489 59.3389 67.5416H59.6701L59.4783 70.7787H50.7634Z" fill="#91251C"/>
<path d="M62.7429 64.9775C62.7429 61.9119 64.7522 58.9504 67.7552 58.9504C70.7583 58.9504 72.7676 61.9119 72.7676 64.9775C72.7676 68.0431 70.7583 71.0371 67.7552 71.0371C64.7522 71.0393 62.7429 68.0431 62.7429 64.9775ZM70.7757 64.9949C70.7757 61.4103 70.1633 59.3499 67.7552 59.3499C65.345 59.3499 64.7348 61.4103 64.7348 64.9949C64.7348 68.562 65.3471 70.6398 67.7552 70.6398C70.1655 70.6398 70.7757 68.562 70.7757 64.9949Z" fill="#91251C"/>
<path d="M76.3982 70.7787V70.3814H77.7428V59.6105H76.3982V59.2131H81.55C84.9039 59.2131 85.4095 60.9631 85.4095 61.7403C85.4095 64.0092 83.4002 64.4412 81.7592 64.5802V64.6149C83.7685 65.1164 85.1305 65.8438 84.9736 68.5794C84.9213 69.4109 85.0259 70.1904 85.4095 70.364C85.7407 70.5898 86.388 70.4856 86.9633 70.2772V70.7093C86.3705 70.9177 85.8628 71.0219 85.4095 71.0371C84.1695 71.0545 83.4721 70.3966 83.2433 69.5824C83.1561 69.2698 83.0515 67.8672 82.9295 66.8294C82.8423 66.0326 82.6854 64.7343 80.4843 64.7343H79.4361V70.3792H80.8156V70.7766H76.3982V70.7787ZM79.4361 64.337H80.3797C82.3018 64.337 83.5048 64.1807 83.5048 61.8098C83.5048 60.1294 82.7704 59.6105 81.0945 59.6105H79.4361V64.337Z" fill="#91251C"/>
<path d="M94.6626 70.7787H89.9641V70.3814H91.4656V59.6105H89.9641V59.2131H94.6626V59.6105H93.1611V70.3814H94.6626V70.7787Z" fill="#91251C"/>
<path d="M99.8668 70.7787V70.3814H101.316V59.6105H100.128C98.4699 59.6105 98.2955 60.8393 97.9621 62.5545H97.5088L97.7006 59.2131H106.694L106.816 62.5545H106.363C106.171 60.9088 105.594 59.6105 103.779 59.6105H103.009V70.3814H104.458V70.7787H99.8668Z" fill="#91251C"/>
<path d="M108.213 70.7787V70.3814H109.593L113.383 59.0568H114.063L117.661 70.3814H118.883V70.7787H114.481V70.3814H115.895L114.69 66.5711H111.354L110.114 70.3814H111.615V70.7787H108.213ZM114.516 66.0869L113.084 61.3951H113.049L111.513 66.0869H114.516Z" fill="#91251C"/>
<path d="M31.675 51.3927C31.675 51.3927 31.6794 51.4123 31.6881 51.4557C31.6946 51.497 31.7143 51.5577 31.7208 51.6402C31.7448 51.8031 31.7622 52.0528 31.7034 52.3697C31.675 52.5282 31.6227 52.7019 31.5508 52.8865C31.4745 53.0688 31.3721 53.2621 31.2392 53.4531C30.9777 53.8374 30.5963 54.2217 30.1125 54.5561C29.6287 54.8904 29.0425 55.1835 28.3538 55.3616C28.1817 55.4071 28.003 55.4419 27.8177 55.4679C27.6303 55.4962 27.4451 55.4983 27.2533 55.5114C26.8697 55.5114 26.4688 55.4745 26.0656 55.3768C25.2636 55.1705 24.4769 54.7232 23.8623 54.0871C23.2413 53.4575 22.7575 52.6824 22.4218 51.8443C21.9577 50.7045 21.7681 49.5256 21.7681 48.4118C21.7702 47.8538 21.8225 47.3088 21.9337 46.7899C21.9642 46.6618 21.9904 46.5294 22.0274 46.4078C22.0623 46.2862 22.0971 46.1668 22.132 46.0474C22.1647 45.928 22.2083 45.8129 22.2453 45.6979C22.2846 45.5828 22.3216 45.4677 22.3674 45.357C22.5308 44.9098 22.7291 44.4951 22.9296 44.1108C23.141 43.733 23.3524 43.3791 23.5812 43.073C24.0301 42.4499 24.4987 41.9766 24.904 41.627C25.2462 41.2167 25.7169 40.7477 26.3249 40.2809C26.9351 39.8141 27.687 39.3604 28.5587 38.9739C30.3021 38.1901 32.5053 37.7038 34.8459 37.5149C36.5697 37.3716 38.2085 37.3803 39.6904 37.4237C41.1723 37.4693 42.4995 37.5518 43.6152 37.6126C44.7288 37.6756 45.6311 37.7168 46.2565 37.7342C46.5682 37.745 46.8122 37.7494 46.9779 37.7515C47.1435 37.7537 47.2306 37.7537 47.2306 37.7537C47.2306 37.7537 47.1457 37.7689 46.9822 37.7993C46.8188 37.8275 46.5791 37.8666 46.2674 37.91C45.6463 37.9991 44.7397 38.0989 43.6196 38.1771C42.5016 38.2574 41.1679 38.316 39.6969 38.3768C38.2259 38.4398 36.6154 38.5028 34.9418 38.6417C32.6688 38.8263 30.568 39.1606 28.8659 39.7425C28.016 40.0291 27.2642 40.3721 26.6344 40.7368C26.0046 41.0994 25.4924 41.4794 25.1002 41.8202C24.429 42.6084 23.6139 43.8937 23.1606 45.6132C23.1279 45.7196 23.104 45.8303 23.0778 45.9389C23.0538 46.0496 23.0211 46.1581 22.9994 46.2732C22.9776 46.3861 22.9536 46.5012 22.9296 46.6163C22.9056 46.7313 22.8926 46.8421 22.873 46.9571C22.8076 47.4131 22.7945 47.8994 22.8163 48.3944C22.8664 49.3844 23.0691 50.4331 23.4744 51.4253C23.7665 52.157 24.1653 52.817 24.6491 53.3446C25.1285 53.8808 25.7147 54.2521 26.3293 54.4605C26.6387 54.5604 26.9569 54.6147 27.2707 54.6429C27.4276 54.6429 27.5889 54.6603 27.7393 54.6494C27.8918 54.6429 28.0444 54.6299 28.1926 54.6038C28.7919 54.5148 29.3432 54.3151 29.8117 54.0741C30.2803 53.8331 30.666 53.5378 30.9515 53.2317C31.0953 53.0797 31.213 52.9234 31.3089 52.7692C31.4004 52.6151 31.4745 52.4653 31.5268 52.3242C31.6314 52.0419 31.6598 51.8031 31.6663 51.6424C31.675 51.5621 31.6685 51.4991 31.6685 51.4579C31.675 51.4144 31.675 51.3927 31.675 51.3927Z" fill="#91251C"/>
<path d="M25.4097 39.495C25.4097 39.495 25.7104 39.2865 26.2356 38.9196C26.3032 38.874 26.3729 38.8241 26.447 38.7742C26.5255 38.7286 26.6061 38.6786 26.6911 38.6287C26.8611 38.5266 27.0463 38.4159 27.2446 38.2987C27.3449 38.2401 27.4451 38.1771 27.5541 38.1163C27.663 38.0599 27.7764 38.0012 27.894 37.9426C28.1294 37.8232 28.3735 37.6929 28.6372 37.5648C29.6963 37.072 31.0104 36.577 32.5206 36.2079C34.0287 35.8366 35.7285 35.5956 37.5112 35.5088C39.296 35.4176 40.9914 35.4806 42.5235 35.5783C44.0577 35.6716 45.4284 35.8301 46.5726 35.8952C47.7189 35.9669 48.6472 35.9387 49.2923 35.8887C49.6126 35.8648 49.8611 35.8258 50.0311 35.8106C50.201 35.791 50.2904 35.7823 50.2904 35.7823C50.2904 35.7823 50.2032 35.8062 50.0398 35.8497C49.8742 35.8909 49.6323 35.9647 49.3141 36.0299C48.6777 36.1645 47.7385 36.3078 46.5682 36.3512C45.3979 36.3989 44.0185 36.3534 42.4951 36.3468C40.9697 36.336 39.2982 36.3316 37.5569 36.4207C35.8135 36.5075 34.166 36.6834 32.6862 36.9613C31.2043 37.237 29.8968 37.6083 28.8137 37.9882C28.5478 38.0903 28.2928 38.188 28.0509 38.2813C27.9289 38.3269 27.8134 38.3725 27.6979 38.4159C27.5846 38.4615 27.48 38.5136 27.3754 38.5592C27.1683 38.6526 26.9722 38.7394 26.7935 38.8176C26.7042 38.8567 26.6192 38.8957 26.5364 38.9305C26.4579 38.9717 26.3816 39.0108 26.3097 39.0477C25.7366 39.3321 25.4097 39.495 25.4097 39.495Z" fill="#91251C"/>
<path d="M126.683 51.3927L126.669 51.4557C126.663 51.497 126.643 51.5577 126.637 51.6402C126.613 51.8031 126.595 52.0528 126.654 52.3697C126.683 52.5282 126.735 52.7019 126.809 52.8865C126.885 53.0688 126.988 53.2621 127.118 53.4531C127.38 53.8374 127.761 54.2217 128.245 54.5561C128.729 54.8904 129.315 55.1835 130.002 55.3616C130.174 55.4071 130.352 55.4419 130.538 55.4679C130.725 55.4962 130.91 55.4983 131.102 55.5114C131.486 55.5114 131.887 55.4745 132.29 55.3768C133.09 55.1705 133.879 54.7232 134.493 54.0871C135.114 53.4575 135.598 52.6824 135.934 51.8443C136.398 50.7045 136.587 49.5256 136.587 48.4118C136.585 47.8538 136.533 47.3088 136.422 46.7899C136.391 46.6618 136.363 46.5294 136.328 46.4078C136.293 46.2862 136.258 46.1668 136.223 46.0474C136.191 45.928 136.147 45.8129 136.11 45.6979C136.071 45.5828 136.034 45.4677 135.988 45.357C135.825 44.9098 135.626 44.4951 135.428 44.1108C135.217 43.733 135.005 43.3791 134.774 43.073C134.325 42.4499 133.857 41.9766 133.454 41.627C133.109 41.2167 132.641 40.7477 132.03 40.2809C131.422 39.8141 130.668 39.3604 129.797 38.9739C128.053 38.1901 125.85 37.7038 123.51 37.5149C121.784 37.3716 120.145 37.3803 118.665 37.4237C117.183 37.4693 115.856 37.5518 114.74 37.6126C113.627 37.6756 112.724 37.7168 112.099 37.7342C111.787 37.745 111.543 37.7494 111.378 37.7515C111.212 37.7537 111.125 37.7537 111.125 37.7537C111.125 37.7537 111.21 37.7689 111.373 37.7993C111.537 37.8275 111.776 37.8666 112.088 37.91C112.709 37.9991 113.616 38.0989 114.734 38.1771C115.854 38.2574 117.185 38.316 118.656 38.3768C120.127 38.4398 121.738 38.5028 123.411 38.6417C125.684 38.8263 127.785 39.1606 129.487 39.7425C130.339 40.0291 131.091 40.3721 131.719 40.7368C132.349 41.0994 132.861 41.4794 133.253 41.8202C133.922 42.6084 134.737 43.8937 135.193 45.6132C135.225 45.7196 135.249 45.8303 135.275 45.9389C135.299 46.0496 135.332 46.1581 135.354 46.2732C135.378 46.3861 135.4 46.5012 135.424 46.6163C135.448 46.7313 135.461 46.8421 135.48 46.9571C135.543 47.4131 135.559 47.8994 135.537 48.3944C135.487 49.3844 135.284 50.4331 134.879 51.4253C134.585 52.157 134.188 52.817 133.704 53.3446C133.225 53.8808 132.641 54.2521 132.026 54.4605C131.717 54.5604 131.399 54.6147 131.085 54.6429C130.928 54.6429 130.767 54.6603 130.616 54.6494C130.464 54.6429 130.311 54.6299 130.163 54.6038C129.564 54.5148 129.012 54.3151 128.544 54.0741C128.075 53.8331 127.689 53.5378 127.402 53.2317C127.26 53.0797 127.14 52.9234 127.044 52.7692C126.953 52.6151 126.879 52.4653 126.826 52.3242C126.722 52.0419 126.693 51.8031 126.687 51.6424C126.678 51.5621 126.685 51.4991 126.685 51.4579V51.3927H126.683Z" fill="#91251C"/>
<path d="M132.948 39.495C132.948 39.495 132.647 39.2865 132.122 38.9196C132.054 38.874 131.985 38.8241 131.911 38.7742C131.834 38.7286 131.751 38.6786 131.669 38.6287C131.499 38.5266 131.313 38.4159 131.115 38.2987C131.015 38.2401 130.915 38.1771 130.806 38.1163C130.697 38.0599 130.581 38.0012 130.466 37.9426C130.23 37.8232 129.986 37.6929 129.723 37.5648C128.663 37.072 127.349 36.577 125.839 36.2079C124.331 35.8366 122.631 35.5956 120.849 35.5088C119.064 35.4176 117.368 35.4806 115.836 35.5783C114.302 35.6716 112.931 35.8301 111.787 35.8952C110.641 35.9669 109.712 35.9387 109.067 35.8887C108.747 35.8648 108.499 35.8258 108.329 35.8106C108.159 35.791 108.069 35.7823 108.069 35.7823C108.069 35.7823 108.156 35.8062 108.32 35.8497C108.486 35.8909 108.727 35.9647 109.046 36.0299C109.682 36.1645 110.621 36.3078 111.792 36.3512C112.962 36.3989 114.341 36.3534 115.865 36.3468C117.39 36.336 119.062 36.3316 120.803 36.4207C122.546 36.5075 124.194 36.6834 125.673 36.9613C127.155 37.237 128.463 37.6083 129.546 37.9882C129.812 38.0903 130.067 38.188 130.309 38.2813C130.431 38.3269 130.546 38.3725 130.662 38.4159C130.775 38.4615 130.88 38.5136 130.984 38.5592C131.191 38.6526 131.388 38.7394 131.566 38.8176C131.656 38.8567 131.743 38.8957 131.823 38.9305C131.904 38.9717 131.978 39.0108 132.05 39.0477C132.621 39.3321 132.948 39.495 132.948 39.495Z" fill="#91251C"/>
<path d="M83.2149 2.4664C82.9882 2.26449 82.7398 2.16461 82.4696 2.16461C82.3693 2.16461 82.1623 2.25363 81.8419 2.43166C81.5238 2.6097 81.3211 2.69871 81.2361 2.69871C81.1664 2.69871 81.0312 2.58364 80.8329 2.3535C80.3077 1.77815 80.0244 1.46551 79.9808 1.41992C79.7106 1.14419 79.5341 0.970495 79.4491 0.901019C79.2791 0.775094 79.0721 0.709961 78.8324 0.709961C78.5207 0.709961 78.0674 1.05083 77.4703 1.73039C77.2568 1.98441 77.0454 2.23843 76.8318 2.49028C76.6749 2.67483 76.555 2.76602 76.47 2.76602C76.3698 2.76602 76.1649 2.68351 75.8533 2.51634C75.5417 2.34916 75.3281 2.26666 75.2148 2.26666C75.0579 2.26666 74.8923 2.3383 74.7157 2.48377C74.5392 2.62706 73.9334 2.9853 74.9206 4.35528C76.8492 7.03228 77.6207 10.0892 78.4292 15.3043C78.5251 15.923 78.6711 16.2075 78.9392 16.2075H78.9827C79.5493 16.2075 78.7779 8.84517 78.7779 8.87991C78.7779 8.49996 79.0372 8.19166 79.1941 8.17863C79.9351 8.11567 79.5493 9.32716 79.6649 14.527C79.6801 15.1849 79.7651 15.8253 79.9351 15.8253C80.0637 15.8253 80.2881 15.7428 80.3208 15.4432C80.8526 10.4713 81.9662 5.91849 82.9621 4.37699C83.3892 3.7148 83.557 3.28275 83.557 3.13294C83.5548 2.88977 83.4393 2.66832 83.2149 2.4664Z" fill="#91251C"/>
<path d="M94.9307 2.65746C94.9307 3.05043 94.8937 3.43906 94.8196 3.82118C94.7455 4.2033 94.7084 4.3987 94.7084 4.41173C94.7084 4.43561 94.715 4.49206 94.728 4.57891C94.728 4.66575 94.728 4.73957 94.728 4.80036C94.728 5.41479 94.5799 5.72309 94.2813 5.72309C93.8847 5.72309 93.6864 5.36051 93.6864 4.63318C93.6864 4.24021 93.7692 3.76256 93.937 3.20241C94.1048 2.64226 94.1876 2.28185 94.1876 2.12336C94.1876 1.85197 93.998 1.58275 93.621 1.31136C93.2418 1.03997 92.8975 0.905359 92.588 0.905359C91.372 0.905359 90.0317 1.63703 88.5673 3.10254C87.0527 4.62884 85.5402 6.81299 84.0257 9.655C83.4787 10.6885 83.0145 11.8088 82.6287 13.0137C82.3062 14.0472 82.0774 14.946 81.9401 15.7081C81.89 15.9665 81.8529 16.1271 81.8289 16.1879C81.7549 16.3117 81.611 16.4029 81.4018 16.4636C81.3386 16.3659 81.3081 16.2661 81.3081 16.1684C81.3081 16.0946 81.3582 15.8536 81.4563 15.4476C81.5805 14.87 81.6851 14.3577 81.7723 13.9169C81.8333 13.2526 82.0512 12.0107 82.4239 10.1891C83.2673 6.92806 84.5203 4.40087 86.1831 2.60318C87.8089 0.86845 89.6394 0 91.6749 0C92.6425 0 93.427 0.25185 94.0285 0.757723C94.63 1.26142 94.9307 1.89539 94.9307 2.65746Z" fill="#91251C"/>
<path d="M77.6752 16.4788C77.6752 16.6873 77.4529 17.3256 77.2284 17.3256C77.0563 17.3256 77.0781 16.7242 77.004 16.5896C76.9539 16.5027 76.8863 16.3073 76.7991 15.999C76.0909 13.5261 75.2104 11.3181 74.1557 9.37275C72.7653 6.78911 71.3749 4.76562 69.9867 3.30011C68.7075 1.9475 67.6353 1.27011 66.7658 1.27011C66.2318 1.27011 65.8003 1.44162 65.4713 1.78683C65.1422 2.13204 64.9788 2.58581 64.9788 3.15247C64.9788 3.30011 65.0245 3.50854 65.1182 3.77993C65.2119 4.05132 65.2577 4.24672 65.2577 4.37047C65.2577 4.51811 65.201 4.73088 65.0899 5.00661C64.9788 5.28235 64.8916 5.4213 64.8284 5.4213C64.6301 5.4213 64.4383 5.19333 64.2509 4.73739C64.0286 4.20764 63.9153 3.58018 63.9153 2.85503C63.9153 2.39909 64.033 2.01914 64.2683 1.71084C64.5538 1.32873 64.9635 1.00957 65.4974 0.751206C65.9943 0.492842 66.4585 0.364746 66.8943 0.364746C67.9251 0.364746 68.9843 0.703442 70.0761 1.38083C71.1919 2.09513 72.2466 3.11556 73.2404 4.44429C74.5937 6.26587 75.5548 8.41745 76.1257 10.9034C76.4352 12.2321 76.7948 13.5435 77.2045 14.8353C77.5205 15.834 77.6752 16.3811 77.6752 16.4788Z" fill="#91251C"/>
<path d="M82.6047 83.6644C82.6047 83.6644 83.6987 82.2771 89.938 82.1967C96.1772 82.1142 100.006 81.3326 101.1 79.2114C101.1 79.2114 100.553 80.4359 98.0361 80.6791C95.5191 80.9244 87.1616 81.5541 84.9039 82.4399C82.8248 83.2562 82.6047 83.6644 82.6047 83.6644Z" fill="#91251C"/>
<path d="M74.4149 83.6644C74.4149 83.6644 73.3231 82.2771 67.0948 82.1967C60.8686 82.1142 57.044 81.3326 55.9521 79.2114C55.9521 79.2114 56.4991 80.4359 59.0118 80.6791C61.5245 80.9244 69.8668 81.5541 72.1202 82.4399C74.197 83.2562 74.4149 83.6644 74.4149 83.6644Z" fill="#91251C"/>
<path d="M67.1536 84.4612C67.1536 84.4612 67.1493 84.4677 67.1427 84.4829C67.1362 84.4981 67.1275 84.5198 67.11 84.548C67.0795 84.6044 67.0272 84.687 66.9291 84.776C66.8812 84.8216 66.8202 84.865 66.7483 84.9084C66.6764 84.9518 66.5914 84.9909 66.4976 85.0256C66.308 85.0951 66.0749 85.1407 65.8155 85.1472C65.5562 85.1537 65.2685 85.1299 64.97 85.0474C64.8959 85.0278 64.8218 85.0018 64.7455 84.9735C64.6692 84.9453 64.5995 84.9084 64.5254 84.8737C64.3816 84.7955 64.2421 84.7043 64.1179 84.5914C63.8694 84.3656 63.6864 84.0638 63.6101 83.7382C63.5317 83.4125 63.5382 83.0695 63.6145 82.7373C63.7169 82.2813 63.9283 81.871 64.1963 81.5171C64.3315 81.3412 64.4818 81.1784 64.6474 81.0373C64.6889 81.0026 64.7324 80.9656 64.7738 80.9352C64.8152 80.9049 64.8567 80.8723 64.8981 80.8419C64.9395 80.8115 64.9831 80.7833 65.0245 80.7529C65.0659 80.7246 65.1073 80.6943 65.1509 80.6704C65.3187 80.5618 65.493 80.4706 65.6586 80.3881C65.8286 80.31 65.9899 80.2405 66.149 80.1905C66.465 80.0842 66.7526 80.0277 66.9858 79.9995C67.2103 79.9387 67.4979 79.8844 67.8357 79.8584C68.1735 79.8323 68.5614 79.841 68.9777 79.8953C69.8123 79.9973 70.745 80.2882 71.6582 80.7008C72.3316 81.0025 72.9374 81.3369 73.4757 81.6495C74.014 81.9622 74.4869 82.2575 74.8857 82.5006C75.2845 82.746 75.607 82.9414 75.8358 83.0716C75.9491 83.1368 76.0385 83.1889 76.0995 83.2214C76.1605 83.2562 76.1932 83.2735 76.1932 83.2735C76.1932 83.2735 76.1584 83.2605 76.0908 83.2366C76.0232 83.2128 75.9252 83.1758 75.7988 83.1281C75.546 83.0304 75.1864 82.8806 74.7527 82.6787C74.319 82.4789 73.8113 82.2292 73.2512 81.9513C72.6911 81.6734 72.0788 81.3695 71.425 81.0764C70.538 80.6769 69.6794 80.3599 68.9079 80.1992C68.5222 80.1189 68.1626 80.0755 67.8423 80.0646C67.5219 80.0538 67.2408 80.0711 67.0141 80.0994C66.5761 80.2144 65.9659 80.4576 65.384 80.9114C65.347 80.9374 65.3121 80.9678 65.2751 80.9982C65.2402 81.0286 65.201 81.0568 65.1661 81.0894C65.1312 81.1198 65.0942 81.1524 65.0593 81.1849C65.0223 81.2175 64.9918 81.2501 64.9569 81.2805C64.824 81.4129 64.7019 81.5627 64.5908 81.7255C64.3729 82.049 64.1963 82.4225 64.107 82.8198C64.0394 83.1107 64.0307 83.3995 64.0808 83.6643C64.131 83.9314 64.2574 84.1659 64.4361 84.3569C64.5276 84.4503 64.6322 84.5328 64.7412 84.6044C64.8 84.637 64.8545 84.6739 64.9133 84.7C64.9722 84.7282 65.031 84.7543 65.092 84.7781C65.3361 84.8693 65.5889 84.9193 65.8199 84.9366C66.0531 84.954 66.2666 84.9388 66.4453 84.8997C66.5347 84.8802 66.6175 84.8541 66.6894 84.8259C66.7613 84.7955 66.8245 84.7629 66.8768 84.7282C66.9836 84.6609 67.0512 84.5893 67.0926 84.5415C67.1144 84.5176 67.1275 84.4959 67.1384 84.4829C67.1492 84.4677 67.1536 84.4612 67.1536 84.4612Z" fill="#91251C"/>
<path d="M89.9054 84.4612C89.9054 84.4612 89.9097 84.4677 89.9163 84.4829C89.9228 84.4981 89.9315 84.5198 89.9489 84.548C89.9795 84.6044 90.0317 84.687 90.1298 84.776C90.1778 84.8216 90.2388 84.865 90.3107 84.9084C90.3826 84.9518 90.4676 84.9909 90.5613 85.0256C90.7509 85.0951 90.9841 85.1407 91.2434 85.1472C91.5028 85.1537 91.7904 85.1299 92.089 85.0474C92.1631 85.0278 92.2372 85.0018 92.3134 84.9735C92.3897 84.9453 92.4595 84.9084 92.5336 84.8737C92.6774 84.7955 92.8169 84.7043 92.9411 84.5914C93.1895 84.3656 93.3748 84.0638 93.4488 83.7382C93.5273 83.4125 93.5208 83.0695 93.4445 82.7373C93.3421 82.2813 93.1307 81.871 92.8626 81.5171C92.7275 81.3412 92.5771 81.1784 92.4115 81.0373C92.3701 81.0026 92.3265 80.9656 92.2851 80.9352C92.2437 80.9049 92.2023 80.8723 92.1609 80.8419C92.1195 80.8115 92.0759 80.7833 92.0345 80.7529C91.9931 80.7246 91.9517 80.6943 91.9081 80.6704C91.7403 80.5618 91.5681 80.4706 91.4003 80.3881C91.2304 80.31 91.0691 80.2405 90.91 80.1905C90.594 80.0842 90.3063 80.0277 90.0732 79.9995C89.8465 79.9387 89.561 79.8844 89.2232 79.8584C88.8855 79.8323 88.4975 79.841 88.0813 79.8953C87.2466 79.9973 86.3139 80.2882 85.4008 80.7008C84.7274 81.0025 84.1216 81.3369 83.5833 81.6495C83.045 81.9622 82.5721 82.2575 82.1733 82.5006C81.7745 82.746 81.452 82.9414 81.2231 83.0716C81.1098 83.1368 81.0205 83.1889 80.9595 83.2214C80.8984 83.2562 80.8679 83.2735 80.8679 83.2735C80.8679 83.2735 80.9028 83.2605 80.9703 83.2366C81.0379 83.2128 81.136 83.1758 81.2624 83.1281C81.5152 83.0304 81.8747 82.8806 82.3084 82.6787C82.7421 82.4789 83.2499 82.2292 83.8099 81.9513C84.37 81.6734 84.9824 81.3695 85.6362 81.0764C86.5231 80.6769 87.3818 80.3599 88.1532 80.1992C88.539 80.1189 88.8985 80.0755 89.2189 80.0646C89.5392 80.0538 89.8204 80.0711 90.047 80.0994C90.485 80.2144 91.0952 80.4576 91.6771 80.9114C91.7141 80.9374 91.749 80.9678 91.7861 80.9982C91.8209 81.0286 91.8602 81.0568 91.895 81.0894C91.9299 81.1198 91.9669 81.1524 92.0018 81.1849C92.0389 81.2175 92.0694 81.2501 92.1042 81.2805C92.2372 81.4129 92.3592 81.5627 92.4704 81.7255C92.6883 82.049 92.8648 82.4225 92.9542 82.8198C93.0217 83.1107 93.0304 83.3995 92.9803 83.6643C92.9302 83.9314 92.8038 84.1659 92.6251 84.3569C92.5336 84.4503 92.429 84.5328 92.32 84.6044C92.2611 84.637 92.2067 84.6739 92.1478 84.7C92.089 84.7282 92.0301 84.7543 91.9691 84.7781C91.725 84.8693 91.4722 84.9193 91.2412 84.9366C91.0081 84.954 90.7945 84.9388 90.6158 84.8997C90.5264 84.8802 90.4436 84.8541 90.3717 84.8259C90.2998 84.7955 90.2366 84.7629 90.1843 84.7282C90.0775 84.6609 90.01 84.5893 89.9686 84.5415C89.9468 84.5176 89.9337 84.4959 89.9228 84.4829C89.9119 84.4677 89.9054 84.4612 89.9054 84.4612Z" fill="#91251C"/>
<path d="M78.5884 80.6725C78.7932 80.8853 78.9697 81.1198 79.1288 81.363C79.2836 81.6083 79.4187 81.8645 79.5015 82.1424C79.5429 82.2814 79.5734 82.4246 79.5734 82.5745C79.5734 82.7243 79.5451 82.8806 79.4644 83.0282C79.4274 83.102 79.3685 83.1693 79.3032 83.2301C79.2378 83.2866 79.1746 83.3343 79.1027 83.3821C78.9567 83.4733 78.7845 83.5515 78.584 83.5732C78.3813 83.5949 78.1656 83.5341 78.013 83.4277C77.8583 83.3213 77.7559 83.1824 77.6927 83.0369C77.6295 82.8893 77.6055 82.7373 77.6099 82.5853C77.6208 82.429 77.6622 82.2922 77.7101 82.1554C77.8104 81.8862 77.9433 81.6322 78.0893 81.3847C78.244 81.1393 78.4053 80.8983 78.5884 80.6725Z" fill="#91251C"/>
<path d="M79.2988 104.507C79.5037 104.72 79.6802 104.954 79.8393 105.198C79.994 105.443 80.1291 105.699 80.2119 105.977C80.2533 106.116 80.2838 106.259 80.2838 106.409C80.2838 106.559 80.2555 106.715 80.1749 106.863C80.1378 106.937 80.079 107.004 80.0136 107.065C79.9482 107.121 79.885 107.169 79.8131 107.217C79.6671 107.308 79.4949 107.386 79.2945 107.408C79.0918 107.429 78.876 107.369 78.7235 107.262C78.5688 107.156 78.4663 107.017 78.4031 106.872C78.3399 106.724 78.316 106.572 78.3203 106.42C78.3312 106.264 78.3726 106.127 78.4206 105.99C78.5208 105.721 78.6538 105.467 78.7998 105.219C78.9545 104.974 79.1136 104.735 79.2988 104.507Z" fill="#91251C"/>
</svg>
